<svg width="481" height="320" viewBox="0 0 481 320" fill="none" xmlns="http://www.w3.org/2000/svg">
<g clip-path="url(#clip0_198_1009)">
<path d="M481 0H1V320H481V0Z" fill="white"/>
<path d="M481 0H1V320H481V0Z" fill="white"/>
<path d="M1 43H481.004" stroke="#FF8236" stroke-width="4"/>
<path d="M1 6H481.004" stroke="#C1F1DD" stroke-width="4"/>
<path d="M1 278H481.004" stroke="#FF8236" stroke-width="4"/>
<path d="M15 188C17.2091 188 19 186.209 19 184C19 181.791 17.2091 180 15 180C12.7909 180 11 181.791 11 184C11 186.209 12.7909 188 15 188Z" fill="#FAF7F5"/>
<path d="M15 206.75C17.2091 206.75 19 204.959 19 202.75C19 200.541 17.2091 198.75 15 198.75C12.7909 198.75 11 200.541 11 202.75C11 204.959 12.7909 206.75 15 206.75Z" fill="#FAF7F5"/>
<path d="M15 225.5C17.2091 225.5 19 223.709 19 221.5C19 219.291 17.2091 217.5 15 217.5C12.7909 217.5 11 219.291 11 221.5C11 223.709 12.7909 225.5 15 225.5Z" fill="#FAF7F5"/>
<path d="M15 244.25C17.2091 244.25 19 242.459 19 240.25C19 238.041 17.2091 236.25 15 236.25C12.7909 236.25 11 238.041 11 240.25C11 242.459 12.7909 244.25 15 244.25Z" fill="#FAF7F5"/>
<path d="M15 263C17.2091 263 19 261.209 19 259C19 256.791 17.2091 255 15 255C12.7909 255 11 256.791 11 259C11 261.209 12.7909 263 15 263Z" fill="#FAF7F5"/>
<path d="M15 59C17.2091 59 19 57.2091 19 55C19 52.7909 17.2091 51 15 51C12.7909 51 11 52.7909 11 55C11 57.2091 12.7909 59 15 59Z" fill="#FAF7F5"/>
<path d="M15 77.75C17.2091 77.75 19 75.9591 19 73.75C19 71.5409 17.2091 69.75 15 69.75C12.7909 69.75 11 71.5409 11 73.75C11 75.9591 12.7909 77.75 15 77.75Z" fill="#FAF7F5"/>
<path d="M15 96.5C17.2091 96.5 19 94.7091 19 92.5C19 90.2909 17.2091 88.5 15 88.5C12.7909 88.5 11 90.2909 11 92.5C11 94.7091 12.7909 96.5 15 96.5Z" fill="#FAF7F5"/>
<path d="M15 115.25C17.2091 115.25 19 113.459 19 111.25C19 109.041 17.2091 107.25 15 107.25C12.7909 107.25 11 109.041 11 111.25C11 113.459 12.7909 115.25 15 115.25Z" fill="#FAF7F5"/>
<path d="M15 134C17.2091 134 19 132.209 19 130C19 127.791 17.2091 126 15 126C12.7909 126 11 127.791 11 130C11 132.209 12.7909 134 15 134Z" fill="#FAF7F5"/>
<path d="M32 59C34.2091 59 36 57.2091 36 55C36 52.7909 34.2091 51 32 51C29.7909 51 28 52.7909 28 55C28 57.2091 29.7909 59 32 59Z" fill="#FAF7F5"/>
<path d="M32 77.75C34.2091 77.75 36 75.9591 36 73.75C36 71.5409 34.2091 69.75 32 69.75C29.7909 69.75 28 71.5409 28 73.75C28 75.9591 29.7909 77.75 32 77.75Z" fill="#FAF7F5"/>
<path d="M32 96.5C34.2091 96.5 36 94.7091 36 92.5C36 90.2909 34.2091 88.5 32 88.5C29.7909 88.5 28 90.2909 28 92.5C28 94.7091 29.7909 96.5 32 96.5Z" fill="#FAF7F5"/>
<path d="M32 115.25C34.2091 115.25 36 113.459 36 111.25C36 109.041 34.2091 107.25 32 107.25C29.7909 107.25 28 109.041 28 111.25C28 113.459 29.7909 115.25 32 115.25Z" fill="#FAF7F5"/>
<path d="M32 134C34.2091 134 36 132.209 36 130C36 127.791 34.2091 126 32 126C29.7909 126 28 127.791 28 130C28 132.209 29.7909 134 32 134Z" fill="#FAF7F5"/>
<path d="M49 60C51.2091 60 53 58.2091 53 56C53 53.7909 51.2091 52 49 52C46.7909 52 45 53.7909 45 56C45 58.2091 46.7909 60 49 60Z" fill="#FAF7F5"/>
<path d="M49 78.75C51.2091 78.75 53 76.9591 53 74.75C53 72.5409 51.2091 70.75 49 70.75C46.7909 70.75 45 72.5409 45 74.75C45 76.9591 46.7909 78.75 49 78.75Z" fill="#FAF7F5"/>
<path d="M49 97.5C51.2091 97.5 53 95.7091 53 93.5C53 91.2909 51.2091 89.5 49 89.5C46.7909 89.5 45 91.2909 45 93.5C45 95.7091 46.7909 97.5 49 97.5Z" fill="#FAF7F5"/>
<path d="M49 116.25C51.2091 116.25 53 114.459 53 112.25C53 110.041 51.2091 108.25 49 108.25C46.7909 108.25 45 110.041 45 112.25C45 114.459 46.7909 116.25 49 116.25Z" fill="#FAF7F5"/>
<path d="M49 135C51.2091 135 53 133.209 53 131C53 128.791 51.2091 127 49 127C46.7909 127 45 128.791 45 131C45 133.209 46.7909 135 49 135Z" fill="#FAF7F5"/>
<path d="M32 19C34.2091 19 36 17.2091 36 15C36 12.7909 34.2091 11 32 11C29.7909 11 28 12.7909 28 15C28 17.2091 29.7909 19 32 19Z" fill="#FAF7F5"/>
<path d="M32 38C34.2091 38 36 36.2091 36 34C36 31.7909 34.2091 30 32 30C29.7909 30 28 31.7909 28 34C28 36.2091 29.7909 38 32 38Z" fill="#FAF7F5"/>
<path d="M49 19C51.2091 19 53 17.2091 53 15C53 12.7909 51.2091 11 49 11C46.7909 11 45 12.7909 45 15C45 17.2091 46.7909 19 49 19Z" fill="#FAF7F5"/>
<path d="M49 38C51.2091 38 53 36.2091 53 34C53 31.7909 51.2091 30 49 30C46.7909 30 45 31.7909 45 34C45 36.2091 46.7909 38 49 38Z" fill="#FAF7F5"/>
<path d="M66 19C68.2091 19 70 17.2091 70 15C70 12.7909 68.2091 11 66 11C63.7909 11 62 12.7909 62 15C62 17.2091 63.7909 19 66 19Z" fill="#FAF7F5"/>
<path d="M66 38C68.2091 38 70 36.2091 70 34C70 31.7909 68.2091 30 66 30C63.7909 30 62 31.7909 62 34C62 36.2091 63.7909 38 66 38Z" fill="#FAF7F5"/>
<path d="M83 19C85.2091 19 87 17.2091 87 15C87 12.7909 85.2091 11 83 11C80.7909 11 79 12.7909 79 15C79 17.2091 80.7909 19 83 19Z" fill="#FAF7F5"/>
<path d="M83 38C85.2091 38 87 36.2091 87 34C87 31.7909 85.2091 30 83 30C80.7909 30 79 31.7909 79 34C79 36.2091 80.7909 38 83 38Z" fill="#FAF7F5"/>
<path d="M83 19C85.2091 19 87 17.2091 87 15C87 12.7909 85.2091 11 83 11C80.7909 11 79 12.7909 79 15C79 17.2091 80.7909 19 83 19Z" fill="#FAF7F5"/>
<path d="M83 38C85.2091 38 87 36.2091 87 34C87 31.7909 85.2091 30 83 30C80.7909 30 79 31.7909 79 34C79 36.2091 80.7909 38 83 38Z" fill="#FAF7F5"/>
<path d="M100 19C102.209 19 104 17.2091 104 15C104 12.7909 102.209 11 100 11C97.7909 11 96 12.7909 96 15C96 17.2091 97.7909 19 100 19Z" fill="#FAF7F5"/>
<path d="M100 38C102.209 38 104 36.2091 104 34C104 31.7909 102.209 30 100 30C97.7909 30 96 31.7909 96 34C96 36.2091 97.7909 38 100 38Z" fill="#FAF7F5"/>
<path d="M117 19C119.209 19 121 17.2091 121 15C121 12.7909 119.209 11 117 11C114.791 11 113 12.7909 113 15C113 17.2091 114.791 19 117 19Z" fill="#FAF7F5"/>
<path d="M117 38C119.209 38 121 36.2091 121 34C121 31.7909 119.209 30 117 30C114.791 30 113 31.7909 113 34C113 36.2091 114.791 38 117 38Z" fill="#FAF7F5"/>
<path d="M134 19C136.209 19 138 17.2091 138 15C138 12.7909 136.209 11 134 11C131.791 11 130 12.7909 130 15C130 17.2091 131.791 19 134 19Z" fill="#FAF7F5"/>
<path d="M134 38C136.209 38 138 36.2091 138 34C138 31.7909 136.209 30 134 30C131.791 30 130 31.7909 130 34C130 36.2091 131.791 38 134 38Z" fill="#FAF7F5"/>
<path d="M151 19C153.209 19 155 17.2091 155 15C155 12.7909 153.209 11 151 11C148.791 11 147 12.7909 147 15C147 17.2091 148.791 19 151 19Z" fill="#FAF7F5"/>
<path d="M151 38C153.209 38 155 36.2091 155 34C155 31.7909 153.209 30 151 30C148.791 30 147 31.7909 147 34C147 36.2091 148.791 38 151 38Z" fill="#FAF7F5"/>
<path d="M168 19C170.209 19 172 17.2091 172 15C172 12.7909 170.209 11 168 11C165.791 11 164 12.7909 164 15C164 17.2091 165.791 19 168 19Z" fill="#FAF7F5"/>
<path d="M168 38C170.209 38 172 36.2091 172 34C172 31.7909 170.209 30 168 30C165.791 30 164 31.7909 164 34C164 36.2091 165.791 38 168 38Z" fill="#FAF7F5"/>
<path d="M185 19C187.209 19 189 17.2091 189 15C189 12.7909 187.209 11 185 11C182.791 11 181 12.7909 181 15C181 17.2091 182.791 19 185 19Z" fill="#FAF7F5"/>
<path d="M185 38C187.209 38 189 36.2091 189 34C189 31.7909 187.209 30 185 30C182.791 30 181 31.7909 181 34C181 36.2091 182.791 38 185 38Z" fill="#FAF7F5"/>
<path d="M202 19C204.209 19 206 17.2091 206 15C206 12.7909 204.209 11 202 11C199.791 11 198 12.7909 198 15C198 17.2091 199.791 19 202 19Z" fill="#FAF7F5"/>
<path d="M202 38C204.209 38 206 36.2091 206 34C206 31.7909 204.209 30 202 30C199.791 30 198 31.7909 198 34C198 36.2091 199.791 38 202 38Z" fill="#FAF7F5"/>
<path d="M219 19C221.209 19 223 17.2091 223 15C223 12.7909 221.209 11 219 11C216.791 11 215 12.7909 215 15C215 17.2091 216.791 19 219 19Z" fill="#FAF7F5"/>
<path d="M219 38C221.209 38 223 36.2091 223 34C223 31.7909 221.209 30 219 30C216.791 30 215 31.7909 215 34C215 36.2091 216.791 38 219 38Z" fill="#FAF7F5"/>
<path d="M236 19C238.209 19 240 17.2091 240 15C240 12.7909 238.209 11 236 11C233.791 11 232 12.7909 232 15C232 17.2091 233.791 19 236 19Z" fill="#FAF7F5"/>
<path d="M236 38C238.209 38 240 36.2091 240 34C240 31.7909 238.209 30 236 30C233.791 30 232 31.7909 232 34C232 36.2091 233.791 38 236 38Z" fill="#FAF7F5"/>
<path d="M253 19C255.209 19 257 17.2091 257 15C257 12.7909 255.209 11 253 11C250.791 11 249 12.7909 249 15C249 17.2091 250.791 19 253 19Z" fill="#FAF7F5"/>
<path d="M253 38C255.209 38 257 36.2091 257 34C257 31.7909 255.209 30 253 30C250.791 30 249 31.7909 249 34C249 36.2091 250.791 38 253 38Z" fill="#FAF7F5"/>
<path d="M270 19C272.209 19 274 17.2091 274 15C274 12.7909 272.209 11 270 11C267.791 11 266 12.7909 266 15C266 17.2091 267.791 19 270 19Z" fill="#FAF7F5"/>
<path d="M270 38C272.209 38 274 36.2091 274 34C274 31.7909 272.209 30 270 30C267.791 30 266 31.7909 266 34C266 36.2091 267.791 38 270 38Z" fill="#FAF7F5"/>
<path d="M287 19C289.209 19 291 17.2091 291 15C291 12.7909 289.209 11 287 11C284.791 11 283 12.7909 283 15C283 17.2091 284.791 19 287 19Z" fill="#FAF7F5"/>
<path d="M287 38C289.209 38 291 36.2091 291 34C291 31.7909 289.209 30 287 30C284.791 30 283 31.7909 283 34C283 36.2091 284.791 38 287 38Z" fill="#FAF7F5"/>
<path d="M304 19C306.209 19 308 17.2091 308 15C308 12.7909 306.209 11 304 11C301.791 11 300 12.7909 300 15C300 17.2091 301.791 19 304 19Z" fill="#FAF7F5"/>
<path d="M304 38C306.209 38 308 36.2091 308 34C308 31.7909 306.209 30 304 30C301.791 30 300 31.7909 300 34C300 36.2091 301.791 38 304 38Z" fill="#FAF7F5"/>
<path d="M321 19C323.209 19 325 17.2091 325 15C325 12.7909 323.209 11 321 11C318.791 11 317 12.7909 317 15C317 17.2091 318.791 19 321 19Z" fill="#FAF7F5"/>
<path d="M321 38C323.209 38 325 36.2091 325 34C325 31.7909 323.209 30 321 30C318.791 30 317 31.7909 317 34C317 36.2091 318.791 38 321 38Z" fill="#FAF7F5"/>
<path d="M338 19C340.209 19 342 17.2091 342 15C342 12.7909 340.209 11 338 11C335.791 11 334 12.7909 334 15C334 17.2091 335.791 19 338 19Z" fill="#FAF7F5"/>
<path d="M338 38C340.209 38 342 36.2091 342 34C342 31.7909 340.209 30 338 30C335.791 30 334 31.7909 334 34C334 36.2091 335.791 38 338 38Z" fill="#FAF7F5"/>
<path d="M355 19C357.209 19 359 17.2091 359 15C359 12.7909 357.209 11 355 11C352.791 11 351 12.7909 351 15C351 17.2091 352.791 19 355 19Z" fill="#FAF7F5"/>
<path d="M355 38C357.209 38 359 36.2091 359 34C359 31.7909 357.209 30 355 30C352.791 30 351 31.7909 351 34C351 36.2091 352.791 38 355 38Z" fill="#FAF7F5"/>
<path d="M372 19C374.209 19 376 17.2091 376 15C376 12.7909 374.209 11 372 11C369.791 11 368 12.7909 368 15C368 17.2091 369.791 19 372 19Z" fill="#FAF7F5"/>
<path d="M372 38C374.209 38 376 36.2091 376 34C376 31.7909 374.209 30 372 30C369.791 30 368 31.7909 368 34C368 36.2091 369.791 38 372 38Z" fill="#FAF7F5"/>
<path d="M389 19C391.209 19 393 17.2091 393 15C393 12.7909 391.209 11 389 11C386.791 11 385 12.7909 385 15C385 17.2091 386.791 19 389 19Z" fill="#FAF7F5"/>
<path d="M389 38C391.209 38 393 36.2091 393 34C393 31.7909 391.209 30 389 30C386.791 30 385 31.7909 385 34C385 36.2091 386.791 38 389 38Z" fill="#FAF7F5"/>
<path d="M406 19C408.209 19 410 17.2091 410 15C410 12.7909 408.209 11 406 11C403.791 11 402 12.7909 402 15C402 17.2091 403.791 19 406 19Z" fill="#FAF7F5"/>
<path d="M406 38C408.209 38 410 36.2091 410 34C410 31.7909 408.209 30 406 30C403.791 30 402 31.7909 402 34C402 36.2091 403.791 38 406 38Z" fill="#FAF7F5"/>
<path d="M423 19C425.209 19 427 17.2091 427 15C427 12.7909 425.209 11 423 11C420.791 11 419 12.7909 419 15C419 17.2091 420.791 19 423 19Z" fill="#FAF7F5"/>
<path d="M423 38C425.209 38 427 36.2091 427 34C427 31.7909 425.209 30 423 30C420.791 30 419 31.7909 419 34C419 36.2091 420.791 38 423 38Z" fill="#FAF7F5"/>
<path d="M440 19C442.209 19 444 17.2091 444 15C444 12.7909 442.209 11 440 11C437.791 11 436 12.7909 436 15C436 17.2091 437.791 19 440 19Z" fill="#FAF7F5"/>
<path d="M440 38C442.209 38 444 36.2091 444 34C444 31.7909 442.209 30 440 30C437.791 30 436 31.7909 436 34C436 36.2091 437.791 38 440 38Z" fill="#FAF7F5"/>
<path d="M440 19C442.209 19 444 17.2091 444 15C444 12.7909 442.209 11 440 11C437.791 11 436 12.7909 436 15C436 17.2091 437.791 19 440 19Z" fill="#FAF7F5"/>
<path d="M440 38C442.209 38 444 36.2091 444 34C444 31.7909 442.209 30 440 30C437.791 30 436 31.7909 436 34C436 36.2091 437.791 38 440 38Z" fill="#FAF7F5"/>
<path d="M1 6H481.004" stroke="#C1F1DD" stroke-width="4"/>
<path d="M32 19C34.2091 19 36 17.2091 36 15C36 12.7909 34.2091 11 32 11C29.7909 11 28 12.7909 28 15C28 17.2091 29.7909 19 32 19Z" fill="#FAF7F5"/>
<path d="M32 38C34.2091 38 36 36.2091 36 34C36 31.7909 34.2091 30 32 30C29.7909 30 28 31.7909 28 34C28 36.2091 29.7909 38 32 38Z" fill="#FAF7F5"/>
<path d="M49 19C51.2091 19 53 17.2091 53 15C53 12.7909 51.2091 11 49 11C46.7909 11 45 12.7909 45 15C45 17.2091 46.7909 19 49 19Z" fill="#FAF7F5"/>
<path d="M49 38C51.2091 38 53 36.2091 53 34C53 31.7909 51.2091 30 49 30C46.7909 30 45 31.7909 45 34C45 36.2091 46.7909 38 49 38Z" fill="#FAF7F5"/>
<path d="M66 19C68.2091 19 70 17.2091 70 15C70 12.7909 68.2091 11 66 11C63.7909 11 62 12.7909 62 15C62 17.2091 63.7909 19 66 19Z" fill="#FAF7F5"/>
<path d="M66 38C68.2091 38 70 36.2091 70 34C70 31.7909 68.2091 30 66 30C63.7909 30 62 31.7909 62 34C62 36.2091 63.7909 38 66 38Z" fill="#FAF7F5"/>
<path d="M83 19C85.2091 19 87 17.2091 87 15C87 12.7909 85.2091 11 83 11C80.7909 11 79 12.7909 79 15C79 17.2091 80.7909 19 83 19Z" fill="#FAF7F5"/>
<path d="M83 38C85.2091 38 87 36.2091 87 34C87 31.7909 85.2091 30 83 30C80.7909 30 79 31.7909 79 34C79 36.2091 80.7909 38 83 38Z" fill="#FAF7F5"/>
<path d="M83 19C85.2091 19 87 17.2091 87 15C87 12.7909 85.2091 11 83 11C80.7909 11 79 12.7909 79 15C79 17.2091 80.7909 19 83 19Z" fill="#FAF7F5"/>
<path d="M83 38C85.2091 38 87 36.2091 87 34C87 31.7909 85.2091 30 83 30C80.7909 30 79 31.7909 79 34C79 36.2091 80.7909 38 83 38Z" fill="#FAF7F5"/>
<path d="M100 19C102.209 19 104 17.2091 104 15C104 12.7909 102.209 11 100 11C97.7909 11 96 12.7909 96 15C96 17.2091 97.7909 19 100 19Z" fill="#FAF7F5"/>
<path d="M100 38C102.209 38 104 36.2091 104 34C104 31.7909 102.209 30 100 30C97.7909 30 96 31.7909 96 34C96 36.2091 97.7909 38 100 38Z" fill="#FAF7F5"/>
<path d="M117 19C119.209 19 121 17.2091 121 15C121 12.7909 119.209 11 117 11C114.791 11 113 12.7909 113 15C113 17.2091 114.791 19 117 19Z" fill="#FAF7F5"/>
<path d="M117 38C119.209 38 121 36.2091 121 34C121 31.7909 119.209 30 117 30C114.791 30 113 31.7909 113 34C113 36.2091 114.791 38 117 38Z" fill="#FAF7F5"/>
<path d="M134 19C136.209 19 138 17.2091 138 15C138 12.7909 136.209 11 134 11C131.791 11 130 12.7909 130 15C130 17.2091 131.791 19 134 19Z" fill="#FAF7F5"/>
<path d="M134 38C136.209 38 138 36.2091 138 34C138 31.7909 136.209 30 134 30C131.791 30 130 31.7909 130 34C130 36.2091 131.791 38 134 38Z" fill="#FAF7F5"/>
<path d="M151 19C153.209 19 155 17.2091 155 15C155 12.7909 153.209 11 151 11C148.791 11 147 12.7909 147 15C147 17.2091 148.791 19 151 19Z" fill="#FAF7F5"/>
<path d="M151 38C153.209 38 155 36.2091 155 34C155 31.7909 153.209 30 151 30C148.791 30 147 31.7909 147 34C147 36.2091 148.791 38 151 38Z" fill="#FAF7F5"/>
<path d="M168 19C170.209 19 172 17.2091 172 15C172 12.7909 170.209 11 168 11C165.791 11 164 12.7909 164 15C164 17.2091 165.791 19 168 19Z" fill="#FAF7F5"/>
<path d="M168 38C170.209 38 172 36.2091 172 34C172 31.7909 170.209 30 168 30C165.791 30 164 31.7909 164 34C164 36.2091 165.791 38 168 38Z" fill="#FAF7F5"/>
<path d="M185 19C187.209 19 189 17.2091 189 15C189 12.7909 187.209 11 185 11C182.791 11 181 12.7909 181 15C181 17.2091 182.791 19 185 19Z" fill="#FAF7F5"/>
<path d="M185 38C187.209 38 189 36.2091 189 34C189 31.7909 187.209 30 185 30C182.791 30 181 31.7909 181 34C181 36.2091 182.791 38 185 38Z" fill="#FAF7F5"/>
<path d="M202 19C204.209 19 206 17.2091 206 15C206 12.7909 204.209 11 202 11C199.791 11 198 12.7909 198 15C198 17.2091 199.791 19 202 19Z" fill="#FAF7F5"/>
<path d="M202 38C204.209 38 206 36.2091 206 34C206 31.7909 204.209 30 202 30C199.791 30 198 31.7909 198 34C198 36.2091 199.791 38 202 38Z" fill="#FAF7F5"/>
<path d="M219 19C221.209 19 223 17.2091 223 15C223 12.7909 221.209 11 219 11C216.791 11 215 12.7909 215 15C215 17.2091 216.791 19 219 19Z" fill="#FAF7F5"/>
<path d="M219 38C221.209 38 223 36.2091 223 34C223 31.7909 221.209 30 219 30C216.791 30 215 31.7909 215 34C215 36.2091 216.791 38 219 38Z" fill="#FAF7F5"/>
<path d="M236 19C238.209 19 240 17.2091 240 15C240 12.7909 238.209 11 236 11C233.791 11 232 12.7909 232 15C232 17.2091 233.791 19 236 19Z" fill="#FAF7F5"/>
<path d="M236 38C238.209 38 240 36.2091 240 34C240 31.7909 238.209 30 236 30C233.791 30 232 31.7909 232 34C232 36.2091 233.791 38 236 38Z" fill="#FAF7F5"/>
<path d="M253 19C255.209 19 257 17.2091 257 15C257 12.7909 255.209 11 253 11C250.791 11 249 12.7909 249 15C249 17.2091 250.791 19 253 19Z" fill="#FAF7F5"/>
<path d="M253 38C255.209 38 257 36.2091 257 34C257 31.7909 255.209 30 253 30C250.791 30 249 31.7909 249 34C249 36.2091 250.791 38 253 38Z" fill="#FAF7F5"/>
<path d="M270 19C272.209 19 274 17.2091 274 15C274 12.7909 272.209 11 270 11C267.791 11 266 12.7909 266 15C266 17.2091 267.791 19 270 19Z" fill="#FAF7F5"/>
<path d="M270 38C272.209 38 274 36.2091 274 34C274 31.7909 272.209 30 270 30C267.791 30 266 31.7909 266 34C266 36.2091 267.791 38 270 38Z" fill="#FAF7F5"/>
<path d="M287 19C289.209 19 291 17.2091 291 15C291 12.7909 289.209 11 287 11C284.791 11 283 12.7909 283 15C283 17.2091 284.791 19 287 19Z" fill="#FAF7F5"/>
<path d="M287 38C289.209 38 291 36.2091 291 34C291 31.7909 289.209 30 287 30C284.791 30 283 31.7909 283 34C283 36.2091 284.791 38 287 38Z" fill="#FAF7F5"/>
<path d="M304 19C306.209 19 308 17.2091 308 15C308 12.7909 306.209 11 304 11C301.791 11 300 12.7909 300 15C300 17.2091 301.791 19 304 19Z" fill="#FAF7F5"/>
<path d="M304 38C306.209 38 308 36.2091 308 34C308 31.7909 306.209 30 304 30C301.791 30 300 31.7909 300 34C300 36.2091 301.791 38 304 38Z" fill="#FAF7F5"/>
<path d="M321 19C323.209 19 325 17.2091 325 15C325 12.7909 323.209 11 321 11C318.791 11 317 12.7909 317 15C317 17.2091 318.791 19 321 19Z" fill="#FAF7F5"/>
<path d="M321 38C323.209 38 325 36.2091 325 34C325 31.7909 323.209 30 321 30C318.791 30 317 31.7909 317 34C317 36.2091 318.791 38 321 38Z" fill="#FAF7F5"/>
<path d="M338 19C340.209 19 342 17.2091 342 15C342 12.7909 340.209 11 338 11C335.791 11 334 12.7909 334 15C334 17.2091 335.791 19 338 19Z" fill="#FAF7F5"/>
<path d="M338 38C340.209 38 342 36.2091 342 34C342 31.7909 340.209 30 338 30C335.791 30 334 31.7909 334 34C334 36.2091 335.791 38 338 38Z" fill="#FAF7F5"/>
<path d="M355 19C357.209 19 359 17.2091 359 15C359 12.7909 357.209 11 355 11C352.791 11 351 12.7909 351 15C351 17.2091 352.791 19 355 19Z" fill="#FAF7F5"/>
<path d="M355 38C357.209 38 359 36.2091 359 34C359 31.7909 357.209 30 355 30C352.791 30 351 31.7909 351 34C351 36.2091 352.791 38 355 38Z" fill="#FAF7F5"/>
<path d="M372 19C374.209 19 376 17.2091 376 15C376 12.7909 374.209 11 372 11C369.791 11 368 12.7909 368 15C368 17.2091 369.791 19 372 19Z" fill="#FAF7F5"/>
<path d="M372 38C374.209 38 376 36.2091 376 34C376 31.7909 374.209 30 372 30C369.791 30 368 31.7909 368 34C368 36.2091 369.791 38 372 38Z" fill="#FAF7F5"/>
<path d="M389 19C391.209 19 393 17.2091 393 15C393 12.7909 391.209 11 389 11C386.791 11 385 12.7909 385 15C385 17.2091 386.791 19 389 19Z" fill="#FAF7F5"/>
<path d="M389 38C391.209 38 393 36.2091 393 34C393 31.7909 391.209 30 389 30C386.791 30 385 31.7909 385 34C385 36.2091 386.791 38 389 38Z" fill="#FAF7F5"/>
<path d="M406 19C408.209 19 410 17.2091 410 15C410 12.7909 408.209 11 406 11C403.791 11 402 12.7909 402 15C402 17.2091 403.791 19 406 19Z" fill="#FAF7F5"/>
<path d="M406 38C408.209 38 410 36.2091 410 34C410 31.7909 408.209 30 406 30C403.791 30 402 31.7909 402 34C402 36.2091 403.791 38 406 38Z" fill="#FAF7F5"/>
<path d="M423 19C425.209 19 427 17.2091 427 15C427 12.7909 425.209 11 423 11C420.791 11 419 12.7909 419 15C419 17.2091 420.791 19 423 19Z" fill="#FAF7F5"/>
<path d="M423 38C425.209 38 427 36.2091 427 34C427 31.7909 425.209 30 423 30C420.791 30 419 31.7909 419 34C419 36.2091 420.791 38 423 38Z" fill="#FAF7F5"/>
<path d="M440 19C442.209 19 444 17.2091 444 15C444 12.7909 442.209 11 440 11C437.791 11 436 12.7909 436 15C436 17.2091 437.791 19 440 19Z" fill="#FAF7F5"/>
<path d="M440 38C442.209 38 444 36.2091 444 34C444 31.7909 442.209 30 440 30C437.791 30 436 31.7909 436 34C436 36.2091 437.791 38 440 38Z" fill="#FAF7F5"/>
<path d="M440 19C442.209 19 444 17.2091 444 15C444 12.7909 442.209 11 440 11C437.791 11 436 12.7909 436 15C436 17.2091 437.791 19 440 19Z" fill="#FAF7F5"/>
<path d="M440 38C442.209 38 444 36.2091 444 34C444 31.7909 442.209 30 440 30C437.791 30 436 31.7909 436 34C436 36.2091 437.791 38 440 38Z" fill="#FAF7F5"/>
<path d="M1 315H481.004" stroke="#FF8236" stroke-width="4"/>
<path d="M1 278H481.004" stroke="#C1F1DD" stroke-width="4"/>
<path d="M32 291C34.2091 291 36 289.209 36 287C36 284.791 34.2091 283 32 283C29.7909 283 28 284.791 28 287C28 289.209 29.7909 291 32 291Z" fill="#FAF7F5"/>
<path d="M32 310C34.2091 310 36 308.209 36 306C36 303.791 34.2091 302 32 302C29.7909 302 28 303.791 28 306C28 308.209 29.7909 310 32 310Z" fill="#FAF7F5"/>
<path d="M49 291C51.2091 291 53 289.209 53 287C53 284.791 51.2091 283 49 283C46.7909 283 45 284.791 45 287C45 289.209 46.7909 291 49 291Z" fill="#FAF7F5"/>
<path d="M49 310C51.2091 310 53 308.209 53 306C53 303.791 51.2091 302 49 302C46.7909 302 45 303.791 45 306C45 308.209 46.7909 310 49 310Z" fill="#FAF7F5"/>
<path d="M66 291C68.2091 291 70 289.209 70 287C70 284.791 68.2091 283 66 283C63.7909 283 62 284.791 62 287C62 289.209 63.7909 291 66 291Z" fill="#FAF7F5"/>
<path d="M66 310C68.2091 310 70 308.209 70 306C70 303.791 68.2091 302 66 302C63.7909 302 62 303.791 62 306C62 308.209 63.7909 310 66 310Z" fill="#FAF7F5"/>
<path d="M83 291C85.2091 291 87 289.209 87 287C87 284.791 85.2091 283 83 283C80.7909 283 79 284.791 79 287C79 289.209 80.7909 291 83 291Z" fill="#FAF7F5"/>
<path d="M83 310C85.2091 310 87 308.209 87 306C87 303.791 85.2091 302 83 302C80.7909 302 79 303.791 79 306C79 308.209 80.7909 310 83 310Z" fill="#FAF7F5"/>
<path d="M83 291C85.2091 291 87 289.209 87 287C87 284.791 85.2091 283 83 283C80.7909 283 79 284.791 79 287C79 289.209 80.7909 291 83 291Z" fill="#FAF7F5"/>
<path d="M83 310C85.2091 310 87 308.209 87 306C87 303.791 85.2091 302 83 302C80.7909 302 79 303.791 79 306C79 308.209 80.7909 310 83 310Z" fill="#FAF7F5"/>
<path d="M100 291C102.209 291 104 289.209 104 287C104 284.791 102.209 283 100 283C97.7909 283 96 284.791 96 287C96 289.209 97.7909 291 100 291Z" fill="#FAF7F5"/>
<path d="M100 310C102.209 310 104 308.209 104 306C104 303.791 102.209 302 100 302C97.7909 302 96 303.791 96 306C96 308.209 97.7909 310 100 310Z" fill="#FAF7F5"/>
<path d="M117 291C119.209 291 121 289.209 121 287C121 284.791 119.209 283 117 283C114.791 283 113 284.791 113 287C113 289.209 114.791 291 117 291Z" fill="#FAF7F5"/>
<path d="M117 310C119.209 310 121 308.209 121 306C121 303.791 119.209 302 117 302C114.791 302 113 303.791 113 306C113 308.209 114.791 310 117 310Z" fill="#FAF7F5"/>
<path d="M134 291C136.209 291 138 289.209 138 287C138 284.791 136.209 283 134 283C131.791 283 130 284.791 130 287C130 289.209 131.791 291 134 291Z" fill="#FAF7F5"/>
<path d="M134 310C136.209 310 138 308.209 138 306C138 303.791 136.209 302 134 302C131.791 302 130 303.791 130 306C130 308.209 131.791 310 134 310Z" fill="#FAF7F5"/>
<path d="M151 291C153.209 291 155 289.209 155 287C155 284.791 153.209 283 151 283C148.791 283 147 284.791 147 287C147 289.209 148.791 291 151 291Z" fill="#FAF7F5"/>
<path d="M151 310C153.209 310 155 308.209 155 306C155 303.791 153.209 302 151 302C148.791 302 147 303.791 147 306C147 308.209 148.791 310 151 310Z" fill="#FAF7F5"/>
<path d="M168 291C170.209 291 172 289.209 172 287C172 284.791 170.209 283 168 283C165.791 283 164 284.791 164 287C164 289.209 165.791 291 168 291Z" fill="#FAF7F5"/>
<path d="M168 310C170.209 310 172 308.209 172 306C172 303.791 170.209 302 168 302C165.791 302 164 303.791 164 306C164 308.209 165.791 310 168 310Z" fill="#FAF7F5"/>
<path d="M185 291C187.209 291 189 289.209 189 287C189 284.791 187.209 283 185 283C182.791 283 181 284.791 181 287C181 289.209 182.791 291 185 291Z" fill="#FAF7F5"/>
<path d="M185 310C187.209 310 189 308.209 189 306C189 303.791 187.209 302 185 302C182.791 302 181 303.791 181 306C181 308.209 182.791 310 185 310Z" fill="#FAF7F5"/>
<path d="M202 291C204.209 291 206 289.209 206 287C206 284.791 204.209 283 202 283C199.791 283 198 284.791 198 287C198 289.209 199.791 291 202 291Z" fill="#FAF7F5"/>
<path d="M202 310C204.209 310 206 308.209 206 306C206 303.791 204.209 302 202 302C199.791 302 198 303.791 198 306C198 308.209 199.791 310 202 310Z" fill="#FAF7F5"/>
<path d="M219 291C221.209 291 223 289.209 223 287C223 284.791 221.209 283 219 283C216.791 283 215 284.791 215 287C215 289.209 216.791 291 219 291Z" fill="#FAF7F5"/>
<path d="M219 310C221.209 310 223 308.209 223 306C223 303.791 221.209 302 219 302C216.791 302 215 303.791 215 306C215 308.209 216.791 310 219 310Z" fill="#FAF7F5"/>
<path d="M236 291C238.209 291 240 289.209 240 287C240 284.791 238.209 283 236 283C233.791 283 232 284.791 232 287C232 289.209 233.791 291 236 291Z" fill="#FAF7F5"/>
<path d="M236 310C238.209 310 240 308.209 240 306C240 303.791 238.209 302 236 302C233.791 302 232 303.791 232 306C232 308.209 233.791 310 236 310Z" fill="#FAF7F5"/>
<path d="M253 291C255.209 291 257 289.209 257 287C257 284.791 255.209 283 253 283C250.791 283 249 284.791 249 287C249 289.209 250.791 291 253 291Z" fill="#FAF7F5"/>
<path d="M253 310C255.209 310 257 308.209 257 306C257 303.791 255.209 302 253 302C250.791 302 249 303.791 249 306C249 308.209 250.791 310 253 310Z" fill="#FAF7F5"/>
<path d="M270 291C272.209 291 274 289.209 274 287C274 284.791 272.209 283 270 283C267.791 283 266 284.791 266 287C266 289.209 267.791 291 270 291Z" fill="#FAF7F5"/>
<path d="M270 310C272.209 310 274 308.209 274 306C274 303.791 272.209 302 270 302C267.791 302 266 303.791 266 306C266 308.209 267.791 310 270 310Z" fill="#FAF7F5"/>
<path d="M287 291C289.209 291 291 289.209 291 287C291 284.791 289.209 283 287 283C284.791 283 283 284.791 283 287C283 289.209 284.791 291 287 291Z" fill="#FAF7F5"/>
<path d="M287 310C289.209 310 291 308.209 291 306C291 303.791 289.209 302 287 302C284.791 302 283 303.791 283 306C283 308.209 284.791 310 287 310Z" fill="#FAF7F5"/>
<path d="M304 291C306.209 291 308 289.209 308 287C308 284.791 306.209 283 304 283C301.791 283 300 284.791 300 287C300 289.209 301.791 291 304 291Z" fill="#FAF7F5"/>
<path d="M304 310C306.209 310 308 308.209 308 306C308 303.791 306.209 302 304 302C301.791 302 300 303.791 300 306C300 308.209 301.791 310 304 310Z" fill="#FAF7F5"/>
<path d="M321 291C323.209 291 325 289.209 325 287C325 284.791 323.209 283 321 283C318.791 283 317 284.791 317 287C317 289.209 318.791 291 321 291Z" fill="#FAF7F5"/>
<path d="M321 310C323.209 310 325 308.209 325 306C325 303.791 323.209 302 321 302C318.791 302 317 303.791 317 306C317 308.209 318.791 310 321 310Z" fill="#FAF7F5"/>
<path d="M338 291C340.209 291 342 289.209 342 287C342 284.791 340.209 283 338 283C335.791 283 334 284.791 334 287C334 289.209 335.791 291 338 291Z" fill="#FAF7F5"/>
<path d="M338 310C340.209 310 342 308.209 342 306C342 303.791 340.209 302 338 302C335.791 302 334 303.791 334 306C334 308.209 335.791 310 338 310Z" fill="#FAF7F5"/>
<path d="M355 291C357.209 291 359 289.209 359 287C359 284.791 357.209 283 355 283C352.791 283 351 284.791 351 287C351 289.209 352.791 291 355 291Z" fill="#FAF7F5"/>
<path d="M355 310C357.209 310 359 308.209 359 306C359 303.791 357.209 302 355 302C352.791 302 351 303.791 351 306C351 308.209 352.791 310 355 310Z" fill="#FAF7F5"/>
<path d="M372 291C374.209 291 376 289.209 376 287C376 284.791 374.209 283 372 283C369.791 283 368 284.791 368 287C368 289.209 369.791 291 372 291Z" fill="#FAF7F5"/>
<path d="M372 310C374.209 310 376 308.209 376 306C376 303.791 374.209 302 372 302C369.791 302 368 303.791 368 306C368 308.209 369.791 310 372 310Z" fill="#FAF7F5"/>
<path d="M389 291C391.209 291 393 289.209 393 287C393 284.791 391.209 283 389 283C386.791 283 385 284.791 385 287C385 289.209 386.791 291 389 291Z" fill="#FAF7F5"/>
<path d="M389 310C391.209 310 393 308.209 393 306C393 303.791 391.209 302 389 302C386.791 302 385 303.791 385 306C385 308.209 386.791 310 389 310Z" fill="#FAF7F5"/>
<path d="M406 291C408.209 291 410 289.209 410 287C410 284.791 408.209 283 406 283C403.791 283 402 284.791 402 287C402 289.209 403.791 291 406 291Z" fill="#FAF7F5"/>
<path d="M406 310C408.209 310 410 308.209 410 306C410 303.791 408.209 302 406 302C403.791 302 402 303.791 402 306C402 308.209 403.791 310 406 310Z" fill="#FAF7F5"/>
<path d="M423 291C425.209 291 427 289.209 427 287C427 284.791 425.209 283 423 283C420.791 283 419 284.791 419 287C419 289.209 420.791 291 423 291Z" fill="#FAF7F5"/>
<path d="M423 310C425.209 310 427 308.209 427 306C427 303.791 425.209 302 423 302C420.791 302 419 303.791 419 306C419 308.209 420.791 310 423 310Z" fill="#FAF7F5"/>
<path d="M440 291C442.209 291 444 289.209 444 287C444 284.791 442.209 283 440 283C437.791 283 436 284.791 436 287C436 289.209 437.791 291 440 291Z" fill="#FAF7F5"/>
<path d="M440 310C442.209 310 444 308.209 444 306C444 303.791 442.209 302 440 302C437.791 302 436 303.791 436 306C436 308.209 437.791 310 440 310Z" fill="#FAF7F5"/>
<path d="M440 291C442.209 291 444 289.209 444 287C444 284.791 442.209 283 440 283C437.791 283 436 284.791 436 287C436 289.209 437.791 291 440 291Z" fill="#FAF7F5"/>
<path d="M440 310C442.209 310 444 308.209 444 306C444 303.791 442.209 302 440 302C437.791 302 436 303.791 436 306C436 308.209 437.791 310 440 310Z" fill="#FAF7F5"/>
<path d="M66 60C68.2091 60 70 58.2091 70 56C70 53.7909 68.2091 52 66 52C63.7909 52 62 53.7909 62 56C62 58.2091 63.7909 60 66 60Z" fill="#FAF7F5"/>
<path d="M66 78.75C68.2091 78.75 70 76.9591 70 74.75C70 72.5409 68.2091 70.75 66 70.75C63.7909 70.75 62 72.5409 62 74.75C62 76.9591 63.7909 78.75 66 78.75Z" fill="#FAF7F5"/>
<path d="M66 97.5C68.2091 97.5 70 95.7091 70 93.5C70 91.2909 68.2091 89.5 66 89.5C63.7909 89.5 62 91.2909 62 93.5C62 95.7091 63.7909 97.5 66 97.5Z" fill="#FAF7F5"/>
<path d="M66 116.25C68.2091 116.25 70 114.459 70 112.25C70 110.041 68.2091 108.25 66 108.25C63.7909 108.25 62 110.041 62 112.25C62 114.459 63.7909 116.25 66 116.25Z" fill="#FAF7F5"/>
<path d="M66 135C68.2091 135 70 133.209 70 131C70 128.791 68.2091 127 66 127C63.7909 127 62 128.791 62 131C62 133.209 63.7909 135 66 135Z" fill="#FAF7F5"/>
<path d="M83 60C85.2091 60 87 58.2091 87 56C87 53.7909 85.2091 52 83 52C80.7909 52 79 53.7909 79 56C79 58.2091 80.7909 60 83 60Z" fill="#FAF7F5"/>
<path d="M83 78.75C85.2091 78.75 87 76.9591 87 74.75C87 72.5409 85.2091 70.75 83 70.75C80.7909 70.75 79 72.5409 79 74.75C79 76.9591 80.7909 78.75 83 78.75Z" fill="#FAF7F5"/>
<path d="M83 97.5C85.2091 97.5 87 95.7091 87 93.5C87 91.2909 85.2091 89.5 83 89.5C80.7909 89.5 79 91.2909 79 93.5C79 95.7091 80.7909 97.5 83 97.5Z" fill="#FAF7F5"/>
<path d="M83 116.25C85.2091 116.25 87 114.459 87 112.25C87 110.041 85.2091 108.25 83 108.25C80.7909 108.25 79 110.041 79 112.25C79 114.459 80.7909 116.25 83 116.25Z" fill="#FAF7F5"/>
<path d="M83 135C85.2091 135 87 133.209 87 131C87 128.791 85.2091 127 83 127C80.7909 127 79 128.791 79 131C79 133.209 80.7909 135 83 135Z" fill="#FAF7F5"/>
<path d="M100 60C102.209 60 104 58.2091 104 56C104 53.7909 102.209 52 100 52C97.7909 52 96 53.7909 96 56C96 58.2091 97.7909 60 100 60Z" fill="#FAF7F5"/>
<path d="M100 78.75C102.209 78.75 104 76.9591 104 74.75C104 72.5409 102.209 70.75 100 70.75C97.7909 70.75 96 72.5409 96 74.75C96 76.9591 97.7909 78.75 100 78.75Z" fill="#FAF7F5"/>
<path d="M100 97.5C102.209 97.5 104 95.7091 104 93.5C104 91.2909 102.209 89.5 100 89.5C97.7909 89.5 96 91.2909 96 93.5C96 95.7091 97.7909 97.5 100 97.5Z" fill="#FAF7F5"/>
<path d="M100 116.25C102.209 116.25 104 114.459 104 112.25C104 110.041 102.209 108.25 100 108.25C97.7909 108.25 96 110.041 96 112.25C96 114.459 97.7909 116.25 100 116.25Z" fill="#FAF7F5"/>
<path d="M100 135C102.209 135 104 133.209 104 131C104 128.791 102.209 127 100 127C97.7909 127 96 128.791 96 131C96 133.209 97.7909 135 100 135Z" fill="#FAF7F5"/>
<path d="M117 60C119.209 60 121 58.2091 121 56C121 53.7909 119.209 52 117 52C114.791 52 113 53.7909 113 56C113 58.2091 114.791 60 117 60Z" fill="#FAF7F5"/>
<path d="M117 78.75C119.209 78.75 121 76.9591 121 74.75C121 72.5409 119.209 70.75 117 70.75C114.791 70.75 113 72.5409 113 74.75C113 76.9591 114.791 78.75 117 78.75Z" fill="#FAF7F5"/>
<path d="M117 97.5C119.209 97.5 121 95.7091 121 93.5C121 91.2909 119.209 89.5 117 89.5C114.791 89.5 113 91.2909 113 93.5C113 95.7091 114.791 97.5 117 97.5Z" fill="#FAF7F5"/>
<path d="M117 116.25C119.209 116.25 121 114.459 121 112.25C121 110.041 119.209 108.25 117 108.25C114.791 108.25 113 110.041 113 112.25C113 114.459 114.791 116.25 117 116.25Z" fill="#FAF7F5"/>
<path d="M117 135C119.209 135 121 133.209 121 131C121 128.791 119.209 127 117 127C114.791 127 113 128.791 113 131C113 133.209 114.791 135 117 135Z" fill="#FAF7F5"/>
<path d="M134 60C136.209 60 138 58.2091 138 56C138 53.7909 136.209 52 134 52C131.791 52 130 53.7909 130 56C130 58.2091 131.791 60 134 60Z" fill="#FAF7F5"/>
<path d="M134 78.75C136.209 78.75 138 76.9591 138 74.75C138 72.5409 136.209 70.75 134 70.75C131.791 70.75 130 72.5409 130 74.75C130 76.9591 131.791 78.75 134 78.75Z" fill="#FAF7F5"/>
<path d="M134 97.5C136.209 97.5 138 95.7091 138 93.5C138 91.2909 136.209 89.5 134 89.5C131.791 89.5 130 91.2909 130 93.5C130 95.7091 131.791 97.5 134 97.5Z" fill="#FAF7F5"/>
<path d="M134 116.25C136.209 116.25 138 114.459 138 112.25C138 110.041 136.209 108.25 134 108.25C131.791 108.25 130 110.041 130 112.25C130 114.459 131.791 116.25 134 116.25Z" fill="#FAF7F5"/>
<path d="M134 135C136.209 135 138 133.209 138 131C138 128.791 136.209 127 134 127C131.791 127 130 128.791 130 131C130 133.209 131.791 135 134 135Z" fill="#FAF7F5"/>
<path d="M151 59C153.209 59 155 57.2091 155 55C155 52.7909 153.209 51 151 51C148.791 51 147 52.7909 147 55C147 57.2091 148.791 59 151 59Z" fill="#FAF7F5"/>
<path d="M151 77.75C153.209 77.75 155 75.9591 155 73.75C155 71.5409 153.209 69.75 151 69.75C148.791 69.75 147 71.5409 147 73.75C147 75.9591 148.791 77.75 151 77.75Z" fill="#FAF7F5"/>
<path d="M151 96.5C153.209 96.5 155 94.7091 155 92.5C155 90.2909 153.209 88.5 151 88.5C148.791 88.5 147 90.2909 147 92.5C147 94.7091 148.791 96.5 151 96.5Z" fill="#FAF7F5"/>
<path d="M151 115.25C153.209 115.25 155 113.459 155 111.25C155 109.041 153.209 107.25 151 107.25C148.791 107.25 147 109.041 147 111.25C147 113.459 148.791 115.25 151 115.25Z" fill="#FAF7F5"/>
<path d="M151 134C153.209 134 155 132.209 155 130C155 127.791 153.209 126 151 126C148.791 126 147 127.791 147 130C147 132.209 148.791 134 151 134Z" fill="#FAF7F5"/>
<path d="M168 59C170.209 59 172 57.2091 172 55C172 52.7909 170.209 51 168 51C165.791 51 164 52.7909 164 55C164 57.2091 165.791 59 168 59Z" fill="#FAF7F5"/>
<path d="M168 77.75C170.209 77.75 172 75.9591 172 73.75C172 71.5409 170.209 69.75 168 69.75C165.791 69.75 164 71.5409 164 73.75C164 75.9591 165.791 77.75 168 77.75Z" fill="#FAF7F5"/>
<path d="M168 96.5C170.209 96.5 172 94.7091 172 92.5C172 90.2909 170.209 88.5 168 88.5C165.791 88.5 164 90.2909 164 92.5C164 94.7091 165.791 96.5 168 96.5Z" fill="#FAF7F5"/>
<path d="M168 115.25C170.209 115.25 172 113.459 172 111.25C172 109.041 170.209 107.25 168 107.25C165.791 107.25 164 109.041 164 111.25C164 113.459 165.791 115.25 168 115.25Z" fill="#FAF7F5"/>
<path d="M168 134C170.209 134 172 132.209 172 130C172 127.791 170.209 126 168 126C165.791 126 164 127.791 164 130C164 132.209 165.791 134 168 134Z" fill="#FAF7F5"/>
<path d="M185 60C187.209 60 189 58.2091 189 56C189 53.7909 187.209 52 185 52C182.791 52 181 53.7909 181 56C181 58.2091 182.791 60 185 60Z" fill="#FAF7F5"/>
<path d="M185 78.75C187.209 78.75 189 76.9591 189 74.75C189 72.5409 187.209 70.75 185 70.75C182.791 70.75 181 72.5409 181 74.75C181 76.9591 182.791 78.75 185 78.75Z" fill="#FAF7F5"/>
<path d="M185 97.5C187.209 97.5 189 95.7091 189 93.5C189 91.2909 187.209 89.5 185 89.5C182.791 89.5 181 91.2909 181 93.5C181 95.7091 182.791 97.5 185 97.5Z" fill="#FAF7F5"/>
<path d="M185 116.25C187.209 116.25 189 114.459 189 112.25C189 110.041 187.209 108.25 185 108.25C182.791 108.25 181 110.041 181 112.25C181 114.459 182.791 116.25 185 116.25Z" fill="#FAF7F5"/>
<path d="M185 135C187.209 135 189 133.209 189 131C189 128.791 187.209 127 185 127C182.791 127 181 128.791 181 131C181 133.209 182.791 135 185 135Z" fill="#FAF7F5"/>
<path d="M202 60C204.209 60 206 58.2091 206 56C206 53.7909 204.209 52 202 52C199.791 52 198 53.7909 198 56C198 58.2091 199.791 60 202 60Z" fill="#FAF7F5"/>
<path d="M202 78.75C204.209 78.75 206 76.9591 206 74.75C206 72.5409 204.209 70.75 202 70.75C199.791 70.75 198 72.5409 198 74.75C198 76.9591 199.791 78.75 202 78.75Z" fill="#FAF7F5"/>
<path d="M202 97.5C204.209 97.5 206 95.7091 206 93.5C206 91.2909 204.209 89.5 202 89.5C199.791 89.5 198 91.2909 198 93.5C198 95.7091 199.791 97.5 202 97.5Z" fill="#FAF7F5"/>
<path d="M202 116.25C204.209 116.25 206 114.459 206 112.25C206 110.041 204.209 108.25 202 108.25C199.791 108.25 198 110.041 198 112.25C198 114.459 199.791 116.25 202 116.25Z" fill="#FAF7F5"/>
<path d="M202 135C204.209 135 206 133.209 206 131C206 128.791 204.209 127 202 127C199.791 127 198 128.791 198 131C198 133.209 199.791 135 202 135Z" fill="#FAF7F5"/>
<path d="M219 60C221.209 60 223 58.2091 223 56C223 53.7909 221.209 52 219 52C216.791 52 215 53.7909 215 56C215 58.2091 216.791 60 219 60Z" fill="#FAF7F5"/>
<path d="M219 78.75C221.209 78.75 223 76.9591 223 74.75C223 72.5409 221.209 70.75 219 70.75C216.791 70.75 215 72.5409 215 74.75C215 76.9591 216.791 78.75 219 78.75Z" fill="#FAF7F5"/>
<path d="M219 97.5C221.209 97.5 223 95.7091 223 93.5C223 91.2909 221.209 89.5 219 89.5C216.791 89.5 215 91.2909 215 93.5C215 95.7091 216.791 97.5 219 97.5Z" fill="#FAF7F5"/>
<path d="M219 116.25C221.209 116.25 223 114.459 223 112.25C223 110.041 221.209 108.25 219 108.25C216.791 108.25 215 110.041 215 112.25C215 114.459 216.791 116.25 219 116.25Z" fill="#FAF7F5"/>
<path d="M219 135C221.209 135 223 133.209 223 131C223 128.791 221.209 127 219 127C216.791 127 215 128.791 215 131C215 133.209 216.791 135 219 135Z" fill="#FAF7F5"/>
<path d="M236 60C238.209 60 240 58.2091 240 56C240 53.7909 238.209 52 236 52C233.791 52 232 53.7909 232 56C232 58.2091 233.791 60 236 60Z" fill="#FAF7F5"/>
<path d="M236 78.75C238.209 78.75 240 76.9591 240 74.75C240 72.5409 238.209 70.75 236 70.75C233.791 70.75 232 72.5409 232 74.75C232 76.9591 233.791 78.75 236 78.75Z" fill="#FAF7F5"/>
<path d="M236 97.5C238.209 97.5 240 95.7091 240 93.5C240 91.2909 238.209 89.5 236 89.5C233.791 89.5 232 91.2909 232 93.5C232 95.7091 233.791 97.5 236 97.5Z" fill="#FAF7F5"/>
<path d="M236 116.25C238.209 116.25 240 114.459 240 112.25C240 110.041 238.209 108.25 236 108.25C233.791 108.25 232 110.041 232 112.25C232 114.459 233.791 116.25 236 116.25Z" fill="#FAF7F5"/>
<path d="M236 135C238.209 135 240 133.209 240 131C240 128.791 238.209 127 236 127C233.791 127 232 128.791 232 131C232 133.209 233.791 135 236 135Z" fill="#FAF7F5"/>
<path d="M253 60C255.209 60 257 58.2091 257 56C257 53.7909 255.209 52 253 52C250.791 52 249 53.7909 249 56C249 58.2091 250.791 60 253 60Z" fill="#FAF7F5"/>
<path d="M253 78.75C255.209 78.75 257 76.9591 257 74.75C257 72.5409 255.209 70.75 253 70.75C250.791 70.75 249 72.5409 249 74.75C249 76.9591 250.791 78.75 253 78.75Z" fill="#FAF7F5"/>
<path d="M253 97.5C255.209 97.5 257 95.7091 257 93.5C257 91.2909 255.209 89.5 253 89.5C250.791 89.5 249 91.2909 249 93.5C249 95.7091 250.791 97.5 253 97.5Z" fill="#FAF7F5"/>
<path d="M253 116.25C255.209 116.25 257 114.459 257 112.25C257 110.041 255.209 108.25 253 108.25C250.791 108.25 249 110.041 249 112.25C249 114.459 250.791 116.25 253 116.25Z" fill="#FAF7F5"/>
<path d="M253 135C255.209 135 257 133.209 257 131C257 128.791 255.209 127 253 127C250.791 127 249 128.791 249 131C249 133.209 250.791 135 253 135Z" fill="#FAF7F5"/>
<path d="M270 60C272.209 60 274 58.2091 274 56C274 53.7909 272.209 52 270 52C267.791 52 266 53.7909 266 56C266 58.2091 267.791 60 270 60Z" fill="#FAF7F5"/>
<path d="M270 78.75C272.209 78.75 274 76.9591 274 74.75C274 72.5409 272.209 70.75 270 70.75C267.791 70.75 266 72.5409 266 74.75C266 76.9591 267.791 78.75 270 78.75Z" fill="#FAF7F5"/>
<path d="M270 97.5C272.209 97.5 274 95.7091 274 93.5C274 91.2909 272.209 89.5 270 89.5C267.791 89.5 266 91.2909 266 93.5C266 95.7091 267.791 97.5 270 97.5Z" fill="#FAF7F5"/>
<path d="M270 116.25C272.209 116.25 274 114.459 274 112.25C274 110.041 272.209 108.25 270 108.25C267.791 108.25 266 110.041 266 112.25C266 114.459 267.791 116.25 270 116.25Z" fill="#FAF7F5"/>
<path d="M270 135C272.209 135 274 133.209 274 131C274 128.791 272.209 127 270 127C267.791 127 266 128.791 266 131C266 133.209 267.791 135 270 135Z" fill="#FAF7F5"/>
<path d="M287 58C289.209 58 291 56.2091 291 54C291 51.7909 289.209 50 287 50C284.791 50 283 51.7909 283 54C283 56.2091 284.791 58 287 58Z" fill="#FAF7F5"/>
<path d="M287 76.75C289.209 76.75 291 74.9591 291 72.75C291 70.5409 289.209 68.75 287 68.75C284.791 68.75 283 70.5409 283 72.75C283 74.9591 284.791 76.75 287 76.75Z" fill="#FAF7F5"/>
<path d="M287 95.5C289.209 95.5 291 93.7091 291 91.5C291 89.2909 289.209 87.5 287 87.5C284.791 87.5 283 89.2909 283 91.5C283 93.7091 284.791 95.5 287 95.5Z" fill="#FAF7F5"/>
<path d="M287 114.25C289.209 114.25 291 112.459 291 110.25C291 108.041 289.209 106.25 287 106.25C284.791 106.25 283 108.041 283 110.25C283 112.459 284.791 114.25 287 114.25Z" fill="#FAF7F5"/>
<path d="M287 133C289.209 133 291 131.209 291 129C291 126.791 289.209 125 287 125C284.791 125 283 126.791 283 129C283 131.209 284.791 133 287 133Z" fill="#FAF7F5"/>
<path d="M304 58C306.209 58 308 56.2091 308 54C308 51.7909 306.209 50 304 50C301.791 50 300 51.7909 300 54C300 56.2091 301.791 58 304 58Z" fill="#FAF7F5"/>
<path d="M304 76.75C306.209 76.75 308 74.9591 308 72.75C308 70.5409 306.209 68.75 304 68.75C301.791 68.75 300 70.5409 300 72.75C300 74.9591 301.791 76.75 304 76.75Z" fill="#FAF7F5"/>
<path d="M304 95.5C306.209 95.5 308 93.7091 308 91.5C308 89.2909 306.209 87.5 304 87.5C301.791 87.5 300 89.2909 300 91.5C300 93.7091 301.791 95.5 304 95.5Z" fill="#FAF7F5"/>
<path d="M304 114.25C306.209 114.25 308 112.459 308 110.25C308 108.041 306.209 106.25 304 106.25C301.791 106.25 300 108.041 300 110.25C300 112.459 301.791 114.25 304 114.25Z" fill="#FAF7F5"/>
<path d="M304 133C306.209 133 308 131.209 308 129C308 126.791 306.209 125 304 125C301.791 125 300 126.791 300 129C300 131.209 301.791 133 304 133Z" fill="#FAF7F5"/>
<path d="M321 59C323.209 59 325 57.2091 325 55C325 52.7909 323.209 51 321 51C318.791 51 317 52.7909 317 55C317 57.2091 318.791 59 321 59Z" fill="#FAF7F5"/>
<path d="M321 77.75C323.209 77.75 325 75.9591 325 73.75C325 71.5409 323.209 69.75 321 69.75C318.791 69.75 317 71.5409 317 73.75C317 75.9591 318.791 77.75 321 77.75Z" fill="#FAF7F5"/>
<path d="M321 96.5C323.209 96.5 325 94.7091 325 92.5C325 90.2909 323.209 88.5 321 88.5C318.791 88.5 317 90.2909 317 92.5C317 94.7091 318.791 96.5 321 96.5Z" fill="#FAF7F5"/>
<path d="M321 115.25C323.209 115.25 325 113.459 325 111.25C325 109.041 323.209 107.25 321 107.25C318.791 107.25 317 109.041 317 111.25C317 113.459 318.791 115.25 321 115.25Z" fill="#FAF7F5"/>
<path d="M321 134C323.209 134 325 132.209 325 130C325 127.791 323.209 126 321 126C318.791 126 317 127.791 317 130C317 132.209 318.791 134 321 134Z" fill="#FAF7F5"/>
<path d="M338 59C340.209 59 342 57.2091 342 55C342 52.7909 340.209 51 338 51C335.791 51 334 52.7909 334 55C334 57.2091 335.791 59 338 59Z" fill="#FAF7F5"/>
<path d="M338 77.75C340.209 77.75 342 75.9591 342 73.75C342 71.5409 340.209 69.75 338 69.75C335.791 69.75 334 71.5409 334 73.75C334 75.9591 335.791 77.75 338 77.75Z" fill="#FAF7F5"/>
<path d="M338 96.5C340.209 96.5 342 94.7091 342 92.5C342 90.2909 340.209 88.5 338 88.5C335.791 88.5 334 90.2909 334 92.5C334 94.7091 335.791 96.5 338 96.5Z" fill="#FAF7F5"/>
<path d="M338 115.25C340.209 115.25 342 113.459 342 111.25C342 109.041 340.209 107.25 338 107.25C335.791 107.25 334 109.041 334 111.25C334 113.459 335.791 115.25 338 115.25Z" fill="#FAF7F5"/>
<path d="M338 134C340.209 134 342 132.209 342 130C342 127.791 340.209 126 338 126C335.791 126 334 127.791 334 130C334 132.209 335.791 134 338 134Z" fill="#FAF7F5"/>
<path d="M355 59C357.209 59 359 57.2091 359 55C359 52.7909 357.209 51 355 51C352.791 51 351 52.7909 351 55C351 57.2091 352.791 59 355 59Z" fill="#FAF7F5"/>
<path d="M355 77.75C357.209 77.75 359 75.9591 359 73.75C359 71.5409 357.209 69.75 355 69.75C352.791 69.75 351 71.5409 351 73.75C351 75.9591 352.791 77.75 355 77.75Z" fill="#FAF7F5"/>
<path d="M355 96.5C357.209 96.5 359 94.7091 359 92.5C359 90.2909 357.209 88.5 355 88.5C352.791 88.5 351 90.2909 351 92.5C351 94.7091 352.791 96.5 355 96.5Z" fill="#FAF7F5"/>
<path d="M355 115.25C357.209 115.25 359 113.459 359 111.25C359 109.041 357.209 107.25 355 107.25C352.791 107.25 351 109.041 351 111.25C351 113.459 352.791 115.25 355 115.25Z" fill="#FAF7F5"/>
<path d="M355 134C357.209 134 359 132.209 359 130C359 127.791 357.209 126 355 126C352.791 126 351 127.791 351 130C351 132.209 352.791 134 355 134Z" fill="#FAF7F5"/>
<path d="M355 134C357.209 134 359 132.209 359 130C359 127.791 357.209 126 355 126C352.791 126 351 127.791 351 130C351 132.209 352.791 134 355 134Z" fill="#FAF7F5"/>
<path d="M355 134C357.209 134 359 132.209 359 130C359 127.791 357.209 126 355 126C352.791 126 351 127.791 351 130C351 132.209 352.791 134 355 134Z" fill="#FAF7F5"/>
<path d="M355 134C357.209 134 359 132.209 359 130C359 127.791 357.209 126 355 126C352.791 126 351 127.791 351 130C351 132.209 352.791 134 355 134Z" fill="#FAF7F5"/>
<path d="M355 134C357.209 134 359 132.209 359 130C359 127.791 357.209 126 355 126C352.791 126 351 127.791 351 130C351 132.209 352.791 134 355 134Z" fill="#FAF7F5"/>
<path d="M355 134C357.209 134 359 132.209 359 130C359 127.791 357.209 126 355 126C352.791 126 351 127.791 351 130C351 132.209 352.791 134 355 134Z" fill="#FAF7F5"/>
<path d="M372 59C374.209 59 376 57.2091 376 55C376 52.7909 374.209 51 372 51C369.791 51 368 52.7909 368 55C368 57.2091 369.791 59 372 59Z" fill="#FAF7F5"/>
<path d="M372 77.75C374.209 77.75 376 75.9591 376 73.75C376 71.5409 374.209 69.75 372 69.75C369.791 69.75 368 71.5409 368 73.75C368 75.9591 369.791 77.75 372 77.75Z" fill="#FAF7F5"/>
<path d="M372 96.5C374.209 96.5 376 94.7091 376 92.5C376 90.2909 374.209 88.5 372 88.5C369.791 88.5 368 90.2909 368 92.5C368 94.7091 369.791 96.5 372 96.5Z" fill="#FAF7F5"/>
<path d="M372 115.25C374.209 115.25 376 113.459 376 111.25C376 109.041 374.209 107.25 372 107.25C369.791 107.25 368 109.041 368 111.25C368 113.459 369.791 115.25 372 115.25Z" fill="#FAF7F5"/>
<path d="M372 134C374.209 134 376 132.209 376 130C376 127.791 374.209 126 372 126C369.791 126 368 127.791 368 130C368 132.209 369.791 134 372 134Z" fill="#FAF7F5"/>
<path d="M372 134C374.209 134 376 132.209 376 130C376 127.791 374.209 126 372 126C369.791 126 368 127.791 368 130C368 132.209 369.791 134 372 134Z" fill="#FAF7F5"/>
<path d="M372 134C374.209 134 376 132.209 376 130C376 127.791 374.209 126 372 126C369.791 126 368 127.791 368 130C368 132.209 369.791 134 372 134Z" fill="#FAF7F5"/>
<path d="M372 134C374.209 134 376 132.209 376 130C376 127.791 374.209 126 372 126C369.791 126 368 127.791 368 130C368 132.209 369.791 134 372 134Z" fill="#FAF7F5"/>
<path d="M372 134C374.209 134 376 132.209 376 130C376 127.791 374.209 126 372 126C369.791 126 368 127.791 368 130C368 132.209 369.791 134 372 134Z" fill="#FAF7F5"/>
<path d="M372 134C374.209 134 376 132.209 376 130C376 127.791 374.209 126 372 126C369.791 126 368 127.791 368 130C368 132.209 369.791 134 372 134Z" fill="#FAF7F5"/>
<path d="M389 59C391.209 59 393 57.2091 393 55C393 52.7909 391.209 51 389 51C386.791 51 385 52.7909 385 55C385 57.2091 386.791 59 389 59Z" fill="#FAF7F5"/>
<path d="M389 77.75C391.209 77.75 393 75.9591 393 73.75C393 71.5409 391.209 69.75 389 69.75C386.791 69.75 385 71.5409 385 73.75C385 75.9591 386.791 77.75 389 77.75Z" fill="#FAF7F5"/>
<path d="M389 96.5C391.209 96.5 393 94.7091 393 92.5C393 90.2909 391.209 88.5 389 88.5C386.791 88.5 385 90.2909 385 92.5C385 94.7091 386.791 96.5 389 96.5Z" fill="#FAF7F5"/>
<path d="M389 115.25C391.209 115.25 393 113.459 393 111.25C393 109.041 391.209 107.25 389 107.25C386.791 107.25 385 109.041 385 111.25C385 113.459 386.791 115.25 389 115.25Z" fill="#FAF7F5"/>
<path d="M389 134C391.209 134 393 132.209 393 130C393 127.791 391.209 126 389 126C386.791 126 385 127.791 385 130C385 132.209 386.791 134 389 134Z" fill="#FAF7F5"/>
<path d="M406 59C408.209 59 410 57.2091 410 55C410 52.7909 408.209 51 406 51C403.791 51 402 52.7909 402 55C402 57.2091 403.791 59 406 59Z" fill="#FAF7F5"/>
<path d="M406 77.75C408.209 77.75 410 75.9591 410 73.75C410 71.5409 408.209 69.75 406 69.75C403.791 69.75 402 71.5409 402 73.75C402 75.9591 403.791 77.75 406 77.75Z" fill="#FAF7F5"/>
<path d="M406 96.5C408.209 96.5 410 94.7091 410 92.5C410 90.2909 408.209 88.5 406 88.5C403.791 88.5 402 90.2909 402 92.5C402 94.7091 403.791 96.5 406 96.5Z" fill="#FAF7F5"/>
<path d="M406 115.25C408.209 115.25 410 113.459 410 111.25C410 109.041 408.209 107.25 406 107.25C403.791 107.25 402 109.041 402 111.25C402 113.459 403.791 115.25 406 115.25Z" fill="#FAF7F5"/>
<path d="M406 134C408.209 134 410 132.209 410 130C410 127.791 408.209 126 406 126C403.791 126 402 127.791 402 130C402 132.209 403.791 134 406 134Z" fill="#FAF7F5"/>
<path d="M32 188C34.2091 188 36 186.209 36 184C36 181.791 34.2091 180 32 180C29.7909 180 28 181.791 28 184C28 186.209 29.7909 188 32 188Z" fill="#FAF7F5"/>
<path d="M32 206.75C34.2091 206.75 36 204.959 36 202.75C36 200.541 34.2091 198.75 32 198.75C29.7909 198.75 28 200.541 28 202.75C28 204.959 29.7909 206.75 32 206.75Z" fill="#FAF7F5"/>
<path d="M32 225.5C34.2091 225.5 36 223.709 36 221.5C36 219.291 34.2091 217.5 32 217.5C29.7909 217.5 28 219.291 28 221.5C28 223.709 29.7909 225.5 32 225.5Z" fill="#FAF7F5"/>
<path d="M32 244.25C34.2091 244.25 36 242.459 36 240.25C36 238.041 34.2091 236.25 32 236.25C29.7909 236.25 28 238.041 28 240.25C28 242.459 29.7909 244.25 32 244.25Z" fill="#FAF7F5"/>
<path d="M32 263C34.2091 263 36 261.209 36 259C36 256.791 34.2091 255 32 255C29.7909 255 28 256.791 28 259C28 261.209 29.7909 263 32 263Z" fill="#FAF7F5"/>
<path d="M49 188C51.2091 188 53 186.209 53 184C53 181.791 51.2091 180 49 180C46.7909 180 45 181.791 45 184C45 186.209 46.7909 188 49 188Z" fill="#FAF7F5"/>
<path d="M49 206.75C51.2091 206.75 53 204.959 53 202.75C53 200.541 51.2091 198.75 49 198.75C46.7909 198.75 45 200.541 45 202.75C45 204.959 46.7909 206.75 49 206.75Z" fill="#FAF7F5"/>
<path d="M49 225.5C51.2091 225.5 53 223.709 53 221.5C53 219.291 51.2091 217.5 49 217.5C46.7909 217.5 45 219.291 45 221.5C45 223.709 46.7909 225.5 49 225.5Z" fill="#FAF7F5"/>
<path d="M49 244.25C51.2091 244.25 53 242.459 53 240.25C53 238.041 51.2091 236.25 49 236.25C46.7909 236.25 45 238.041 45 240.25C45 242.459 46.7909 244.25 49 244.25Z" fill="#FAF7F5"/>
<path d="M49 263C51.2091 263 53 261.209 53 259C53 256.791 51.2091 255 49 255C46.7909 255 45 256.791 45 259C45 261.209 46.7909 263 49 263Z" fill="#FAF7F5"/>
<path d="M66 189C68.2091 189 70 187.209 70 185C70 182.791 68.2091 181 66 181C63.7909 181 62 182.791 62 185C62 187.209 63.7909 189 66 189Z" fill="#FAF7F5"/>
<path d="M66 207.75C68.2091 207.75 70 205.959 70 203.75C70 201.541 68.2091 199.75 66 199.75C63.7909 199.75 62 201.541 62 203.75C62 205.959 63.7909 207.75 66 207.75Z" fill="#FAF7F5"/>
<path d="M66 226.5C68.2091 226.5 70 224.709 70 222.5C70 220.291 68.2091 218.5 66 218.5C63.7909 218.5 62 220.291 62 222.5C62 224.709 63.7909 226.5 66 226.5Z" fill="#FAF7F5"/>
<path d="M66 245.25C68.2091 245.25 70 243.459 70 241.25C70 239.041 68.2091 237.25 66 237.25C63.7909 237.25 62 239.041 62 241.25C62 243.459 63.7909 245.25 66 245.25Z" fill="#FAF7F5"/>
<path d="M66 264C68.2091 264 70 262.209 70 260C70 257.791 68.2091 256 66 256C63.7909 256 62 257.791 62 260C62 262.209 63.7909 264 66 264Z" fill="#FAF7F5"/>
<path d="M83 189C85.2091 189 87 187.209 87 185C87 182.791 85.2091 181 83 181C80.7909 181 79 182.791 79 185C79 187.209 80.7909 189 83 189Z" fill="#FAF7F5"/>
<path d="M83 207.75C85.2091 207.75 87 205.959 87 203.75C87 201.541 85.2091 199.75 83 199.75C80.7909 199.75 79 201.541 79 203.75C79 205.959 80.7909 207.75 83 207.75Z" fill="#FAF7F5"/>
<path d="M83 226.5C85.2091 226.5 87 224.709 87 222.5C87 220.291 85.2091 218.5 83 218.5C80.7909 218.5 79 220.291 79 222.5C79 224.709 80.7909 226.5 83 226.5Z" fill="#FAF7F5"/>
<path d="M83 245.25C85.2091 245.25 87 243.459 87 241.25C87 239.041 85.2091 237.25 83 237.25C80.7909 237.25 79 239.041 79 241.25C79 243.459 80.7909 245.25 83 245.25Z" fill="#FAF7F5"/>
<path d="M83 264C85.2091 264 87 262.209 87 260C87 257.791 85.2091 256 83 256C80.7909 256 79 257.791 79 260C79 262.209 80.7909 264 83 264Z" fill="#FAF7F5"/>
<path d="M100 189C102.209 189 104 187.209 104 185C104 182.791 102.209 181 100 181C97.7909 181 96 182.791 96 185C96 187.209 97.7909 189 100 189Z" fill="#FAF7F5"/>
<path d="M100 207.75C102.209 207.75 104 205.959 104 203.75C104 201.541 102.209 199.75 100 199.75C97.7909 199.75 96 201.541 96 203.75C96 205.959 97.7909 207.75 100 207.75Z" fill="#FAF7F5"/>
<path d="M100 226.5C102.209 226.5 104 224.709 104 222.5C104 220.291 102.209 218.5 100 218.5C97.7909 218.5 96 220.291 96 222.5C96 224.709 97.7909 226.5 100 226.5Z" fill="#FAF7F5"/>
<path d="M100 245.25C102.209 245.25 104 243.459 104 241.25C104 239.041 102.209 237.25 100 237.25C97.7909 237.25 96 239.041 96 241.25C96 243.459 97.7909 245.25 100 245.25Z" fill="#FAF7F5"/>
<path d="M100 264C102.209 264 104 262.209 104 260C104 257.791 102.209 256 100 256C97.7909 256 96 257.791 96 260C96 262.209 97.7909 264 100 264Z" fill="#FAF7F5"/>
<path d="M117 189C119.209 189 121 187.209 121 185C121 182.791 119.209 181 117 181C114.791 181 113 182.791 113 185C113 187.209 114.791 189 117 189Z" fill="#FAF7F5"/>
<path d="M117 207.75C119.209 207.75 121 205.959 121 203.75C121 201.541 119.209 199.75 117 199.75C114.791 199.75 113 201.541 113 203.75C113 205.959 114.791 207.75 117 207.75Z" fill="#FAF7F5"/>
<path d="M117 226.5C119.209 226.5 121 224.709 121 222.5C121 220.291 119.209 218.5 117 218.5C114.791 218.5 113 220.291 113 222.5C113 224.709 114.791 226.5 117 226.5Z" fill="#FAF7F5"/>
<path d="M117 245.25C119.209 245.25 121 243.459 121 241.25C121 239.041 119.209 237.25 117 237.25C114.791 237.25 113 239.041 113 241.25C113 243.459 114.791 245.25 117 245.25Z" fill="#FAF7F5"/>
<path d="M117 264C119.209 264 121 262.209 121 260C121 257.791 119.209 256 117 256C114.791 256 113 257.791 113 260C113 262.209 114.791 264 117 264Z" fill="#FAF7F5"/>
<path d="M134 189C136.209 189 138 187.209 138 185C138 182.791 136.209 181 134 181C131.791 181 130 182.791 130 185C130 187.209 131.791 189 134 189Z" fill="#FAF7F5"/>
<path d="M134 207.75C136.209 207.75 138 205.959 138 203.75C138 201.541 136.209 199.75 134 199.75C131.791 199.75 130 201.541 130 203.75C130 205.959 131.791 207.75 134 207.75Z" fill="#FAF7F5"/>
<path d="M134 226.5C136.209 226.5 138 224.709 138 222.5C138 220.291 136.209 218.5 134 218.5C131.791 218.5 130 220.291 130 222.5C130 224.709 131.791 226.5 134 226.5Z" fill="#FAF7F5"/>
<path d="M134 245.25C136.209 245.25 138 243.459 138 241.25C138 239.041 136.209 237.25 134 237.25C131.791 237.25 130 239.041 130 241.25C130 243.459 131.791 245.25 134 245.25Z" fill="#FAF7F5"/>
<path d="M134 264C136.209 264 138 262.209 138 260C138 257.791 136.209 256 134 256C131.791 256 130 257.791 130 260C130 262.209 131.791 264 134 264Z" fill="#FAF7F5"/>
<path d="M151 189C153.209 189 155 187.209 155 185C155 182.791 153.209 181 151 181C148.791 181 147 182.791 147 185C147 187.209 148.791 189 151 189Z" fill="#FAF7F5"/>
<path d="M151 207.75C153.209 207.75 155 205.959 155 203.75C155 201.541 153.209 199.75 151 199.75C148.791 199.75 147 201.541 147 203.75C147 205.959 148.791 207.75 151 207.75Z" fill="#FAF7F5"/>
<path d="M151 226.5C153.209 226.5 155 224.709 155 222.5C155 220.291 153.209 218.5 151 218.5C148.791 218.5 147 220.291 147 222.5C147 224.709 148.791 226.5 151 226.5Z" fill="#FAF7F5"/>
<path d="M151 245.25C153.209 245.25 155 243.459 155 241.25C155 239.041 153.209 237.25 151 237.25C148.791 237.25 147 239.041 147 241.25C147 243.459 148.791 245.25 151 245.25Z" fill="#FAF7F5"/>
<path d="M151 264C153.209 264 155 262.209 155 260C155 257.791 153.209 256 151 256C148.791 256 147 257.791 147 260C147 262.209 148.791 264 151 264Z" fill="#FAF7F5"/>
<path d="M168 188C170.209 188 172 186.209 172 184C172 181.791 170.209 180 168 180C165.791 180 164 181.791 164 184C164 186.209 165.791 188 168 188Z" fill="#FAF7F5"/>
<path d="M168 206.75C170.209 206.75 172 204.959 172 202.75C172 200.541 170.209 198.75 168 198.75C165.791 198.75 164 200.541 164 202.75C164 204.959 165.791 206.75 168 206.75Z" fill="#FAF7F5"/>
<path d="M168 225.5C170.209 225.5 172 223.709 172 221.5C172 219.291 170.209 217.5 168 217.5C165.791 217.5 164 219.291 164 221.5C164 223.709 165.791 225.5 168 225.5Z" fill="#FAF7F5"/>
<path d="M168 244.25C170.209 244.25 172 242.459 172 240.25C172 238.041 170.209 236.25 168 236.25C165.791 236.25 164 238.041 164 240.25C164 242.459 165.791 244.25 168 244.25Z" fill="#FAF7F5"/>
<path d="M168 263C170.209 263 172 261.209 172 259C172 256.791 170.209 255 168 255C165.791 255 164 256.791 164 259C164 261.209 165.791 263 168 263Z" fill="#FAF7F5"/>
<path d="M185 188C187.209 188 189 186.209 189 184C189 181.791 187.209 180 185 180C182.791 180 181 181.791 181 184C181 186.209 182.791 188 185 188Z" fill="#FAF7F5"/>
<path d="M185 206.75C187.209 206.75 189 204.959 189 202.75C189 200.541 187.209 198.75 185 198.75C182.791 198.75 181 200.541 181 202.75C181 204.959 182.791 206.75 185 206.75Z" fill="#FAF7F5"/>
<path d="M185 225.5C187.209 225.5 189 223.709 189 221.5C189 219.291 187.209 217.5 185 217.5C182.791 217.5 181 219.291 181 221.5C181 223.709 182.791 225.5 185 225.5Z" fill="#FAF7F5"/>
<path d="M185 244.25C187.209 244.25 189 242.459 189 240.25C189 238.041 187.209 236.25 185 236.25C182.791 236.25 181 238.041 181 240.25C181 242.459 182.791 244.25 185 244.25Z" fill="#FAF7F5"/>
<path d="M185 263C187.209 263 189 261.209 189 259C189 256.791 187.209 255 185 255C182.791 255 181 256.791 181 259C181 261.209 182.791 263 185 263Z" fill="#FAF7F5"/>
<path d="M202 189C204.209 189 206 187.209 206 185C206 182.791 204.209 181 202 181C199.791 181 198 182.791 198 185C198 187.209 199.791 189 202 189Z" fill="#FAF7F5"/>
<path d="M202 207.75C204.209 207.75 206 205.959 206 203.75C206 201.541 204.209 199.75 202 199.75C199.791 199.75 198 201.541 198 203.75C198 205.959 199.791 207.75 202 207.75Z" fill="#FAF7F5"/>
<path d="M202 226.5C204.209 226.5 206 224.709 206 222.5C206 220.291 204.209 218.5 202 218.5C199.791 218.5 198 220.291 198 222.5C198 224.709 199.791 226.5 202 226.5Z" fill="#FAF7F5"/>
<path d="M202 245.25C204.209 245.25 206 243.459 206 241.25C206 239.041 204.209 237.25 202 237.25C199.791 237.25 198 239.041 198 241.25C198 243.459 199.791 245.25 202 245.25Z" fill="#FAF7F5"/>
<path d="M202 264C204.209 264 206 262.209 206 260C206 257.791 204.209 256 202 256C199.791 256 198 257.791 198 260C198 262.209 199.791 264 202 264Z" fill="#FAF7F5"/>
<path d="M219 189C221.209 189 223 187.209 223 185C223 182.791 221.209 181 219 181C216.791 181 215 182.791 215 185C215 187.209 216.791 189 219 189Z" fill="#FAF7F5"/>
<path d="M219 207.75C221.209 207.75 223 205.959 223 203.75C223 201.541 221.209 199.75 219 199.75C216.791 199.75 215 201.541 215 203.75C215 205.959 216.791 207.75 219 207.75Z" fill="#FAF7F5"/>
<path d="M219 226.5C221.209 226.5 223 224.709 223 222.5C223 220.291 221.209 218.5 219 218.5C216.791 218.5 215 220.291 215 222.5C215 224.709 216.791 226.5 219 226.5Z" fill="#FAF7F5"/>
<path d="M219 245.25C221.209 245.25 223 243.459 223 241.25C223 239.041 221.209 237.25 219 237.25C216.791 237.25 215 239.041 215 241.25C215 243.459 216.791 245.25 219 245.25Z" fill="#FAF7F5"/>
<path d="M219 264C221.209 264 223 262.209 223 260C223 257.791 221.209 256 219 256C216.791 256 215 257.791 215 260C215 262.209 216.791 264 219 264Z" fill="#FAF7F5"/>
<path d="M236 189C238.209 189 240 187.209 240 185C240 182.791 238.209 181 236 181C233.791 181 232 182.791 232 185C232 187.209 233.791 189 236 189Z" fill="#FAF7F5"/>
<path d="M236 207.75C238.209 207.75 240 205.959 240 203.75C240 201.541 238.209 199.75 236 199.75C233.791 199.75 232 201.541 232 203.75C232 205.959 233.791 207.75 236 207.75Z" fill="#FAF7F5"/>
<path d="M236 226.5C238.209 226.5 240 224.709 240 222.5C240 220.291 238.209 218.5 236 218.5C233.791 218.5 232 220.291 232 222.5C232 224.709 233.791 226.5 236 226.5Z" fill="#FAF7F5"/>
<path d="M236 245.25C238.209 245.25 240 243.459 240 241.25C240 239.041 238.209 237.25 236 237.25C233.791 237.25 232 239.041 232 241.25C232 243.459 233.791 245.25 236 245.25Z" fill="#FAF7F5"/>
<path d="M236 264C238.209 264 240 262.209 240 260C240 257.791 238.209 256 236 256C233.791 256 232 257.791 232 260C232 262.209 233.791 264 236 264Z" fill="#FAF7F5"/>
<path d="M253 189C255.209 189 257 187.209 257 185C257 182.791 255.209 181 253 181C250.791 181 249 182.791 249 185C249 187.209 250.791 189 253 189Z" fill="#FAF7F5"/>
<path d="M253 207.75C255.209 207.75 257 205.959 257 203.75C257 201.541 255.209 199.75 253 199.75C250.791 199.75 249 201.541 249 203.75C249 205.959 250.791 207.75 253 207.75Z" fill="#FAF7F5"/>
<path d="M253 226.5C255.209 226.5 257 224.709 257 222.5C257 220.291 255.209 218.5 253 218.5C250.791 218.5 249 220.291 249 222.5C249 224.709 250.791 226.5 253 226.5Z" fill="#FAF7F5"/>
<path d="M253 245.25C255.209 245.25 257 243.459 257 241.25C257 239.041 255.209 237.25 253 237.25C250.791 237.25 249 239.041 249 241.25C249 243.459 250.791 245.25 253 245.25Z" fill="#FAF7F5"/>
<path d="M253 264C255.209 264 257 262.209 257 260C257 257.791 255.209 256 253 256C250.791 256 249 257.791 249 260C249 262.209 250.791 264 253 264Z" fill="#FAF7F5"/>
<path d="M270 189C272.209 189 274 187.209 274 185C274 182.791 272.209 181 270 181C267.791 181 266 182.791 266 185C266 187.209 267.791 189 270 189Z" fill="#FAF7F5"/>
<path d="M270 207.75C272.209 207.75 274 205.959 274 203.75C274 201.541 272.209 199.75 270 199.75C267.791 199.75 266 201.541 266 203.75C266 205.959 267.791 207.75 270 207.75Z" fill="#FAF7F5"/>
<path d="M270 226.5C272.209 226.5 274 224.709 274 222.5C274 220.291 272.209 218.5 270 218.5C267.791 218.5 266 220.291 266 222.5C266 224.709 267.791 226.5 270 226.5Z" fill="#FAF7F5"/>
<path d="M270 245.25C272.209 245.25 274 243.459 274 241.25C274 239.041 272.209 237.25 270 237.25C267.791 237.25 266 239.041 266 241.25C266 243.459 267.791 245.25 270 245.25Z" fill="#FAF7F5"/>
<path d="M270 264C272.209 264 274 262.209 274 260C274 257.791 272.209 256 270 256C267.791 256 266 257.791 266 260C266 262.209 267.791 264 270 264Z" fill="#FAF7F5"/>
<path d="M287 189C289.209 189 291 187.209 291 185C291 182.791 289.209 181 287 181C284.791 181 283 182.791 283 185C283 187.209 284.791 189 287 189Z" fill="#FAF7F5"/>
<path d="M287 207.75C289.209 207.75 291 205.959 291 203.75C291 201.541 289.209 199.75 287 199.75C284.791 199.75 283 201.541 283 203.75C283 205.959 284.791 207.75 287 207.75Z" fill="#FAF7F5"/>
<path d="M287 226.5C289.209 226.5 291 224.709 291 222.5C291 220.291 289.209 218.5 287 218.5C284.791 218.5 283 220.291 283 222.5C283 224.709 284.791 226.5 287 226.5Z" fill="#FAF7F5"/>
<path d="M287 245.25C289.209 245.25 291 243.459 291 241.25C291 239.041 289.209 237.25 287 237.25C284.791 237.25 283 239.041 283 241.25C283 243.459 284.791 245.25 287 245.25Z" fill="#FAF7F5"/>
<path d="M287 264C289.209 264 291 262.209 291 260C291 257.791 289.209 256 287 256C284.791 256 283 257.791 283 260C283 262.209 284.791 264 287 264Z" fill="#FAF7F5"/>
<path d="M355 189C357.209 189 359 187.209 359 185C359 182.791 357.209 181 355 181C352.791 181 351 182.791 351 185C351 187.209 352.791 189 355 189Z" fill="#FAF7F5"/>
<path d="M355 207.75C357.209 207.75 359 205.959 359 203.75C359 201.541 357.209 199.75 355 199.75C352.791 199.75 351 201.541 351 203.75C351 205.959 352.791 207.75 355 207.75Z" fill="#FAF7F5"/>
<path d="M355 226.5C357.209 226.5 359 224.709 359 222.5C359 220.291 357.209 218.5 355 218.5C352.791 218.5 351 220.291 351 222.5C351 224.709 352.791 226.5 355 226.5Z" fill="#FAF7F5"/>
<path d="M355 245.25C357.209 245.25 359 243.459 359 241.25C359 239.041 357.209 237.25 355 237.25C352.791 237.25 351 239.041 351 241.25C351 243.459 352.791 245.25 355 245.25Z" fill="#FAF7F5"/>
<path d="M355 264C357.209 264 359 262.209 359 260C359 257.791 357.209 256 355 256C352.791 256 351 257.791 351 260C351 262.209 352.791 264 355 264Z" fill="#FAF7F5"/>
<path d="M372 189C374.209 189 376 187.209 376 185C376 182.791 374.209 181 372 181C369.791 181 368 182.791 368 185C368 187.209 369.791 189 372 189Z" fill="#FAF7F5"/>
<path d="M372 207.75C374.209 207.75 376 205.959 376 203.75C376 201.541 374.209 199.75 372 199.75C369.791 199.75 368 201.541 368 203.75C368 205.959 369.791 207.75 372 207.75Z" fill="#FAF7F5"/>
<path d="M372 226.5C374.209 226.5 376 224.709 376 222.5C376 220.291 374.209 218.5 372 218.5C369.791 218.5 368 220.291 368 222.5C368 224.709 369.791 226.5 372 226.5Z" fill="#FAF7F5"/>
<path d="M372 245.25C374.209 245.25 376 243.459 376 241.25C376 239.041 374.209 237.25 372 237.25C369.791 237.25 368 239.041 368 241.25C368 243.459 369.791 245.25 372 245.25Z" fill="#FAF7F5"/>
<path d="M372 264C374.209 264 376 262.209 376 260C376 257.791 374.209 256 372 256C369.791 256 368 257.791 368 260C368 262.209 369.791 264 372 264Z" fill="#FAF7F5"/>
<path d="M389 189C391.209 189 393 187.209 393 185C393 182.791 391.209 181 389 181C386.791 181 385 182.791 385 185C385 187.209 386.791 189 389 189Z" fill="#FAF7F5"/>
<path d="M389 207.75C391.209 207.75 393 205.959 393 203.75C393 201.541 391.209 199.75 389 199.75C386.791 199.75 385 201.541 385 203.75C385 205.959 386.791 207.75 389 207.75Z" fill="#FAF7F5"/>
<path d="M389 226.5C391.209 226.5 393 224.709 393 222.5C393 220.291 391.209 218.5 389 218.5C386.791 218.5 385 220.291 385 222.5C385 224.709 386.791 226.5 389 226.5Z" fill="#FAF7F5"/>
<path d="M389 245.25C391.209 245.25 393 243.459 393 241.25C393 239.041 391.209 237.25 389 237.25C386.791 237.25 385 239.041 385 241.25C385 243.459 386.791 245.25 389 245.25Z" fill="#FAF7F5"/>
<path d="M389 264C391.209 264 393 262.209 393 260C393 257.791 391.209 256 389 256C386.791 256 385 257.791 385 260C385 262.209 386.791 264 389 264Z" fill="#FAF7F5"/>
<path d="M389 264.2C391.209 264.2 393 262.409 393 260.2C393 257.991 391.209 256.2 389 256.2C386.791 256.2 385 257.991 385 260.2C385 262.409 386.791 264.2 389 264.2Z" fill="#FAF7F5"/>
<path d="M389 264.4C391.209 264.4 393 262.609 393 260.4C393 258.191 391.209 256.4 389 256.4C386.791 256.4 385 258.191 385 260.4C385 262.609 386.791 264.4 389 264.4Z" fill="#FAF7F5"/>
<path d="M389 264.6C391.209 264.6 393 262.809 393 260.6C393 258.391 391.209 256.6 389 256.6C386.791 256.6 385 258.391 385 260.6C385 262.809 386.791 264.6 389 264.6Z" fill="#FAF7F5"/>
<path d="M389 264.8C391.209 264.8 393 263.009 393 260.8C393 258.591 391.209 256.8 389 256.8C386.791 256.8 385 258.591 385 260.8C385 263.009 386.791 264.8 389 264.8Z" fill="#FAF7F5"/>
<path d="M389 265C391.209 265 393 263.209 393 261C393 258.791 391.209 257 389 257C386.791 257 385 258.791 385 261C385 263.209 386.791 265 389 265Z" fill="#FAF7F5"/>
<path d="M406 190C408.209 190 410 188.209 410 186C410 183.791 408.209 182 406 182C403.791 182 402 183.791 402 186C402 188.209 403.791 190 406 190Z" fill="#FAF7F5"/>
<path d="M406 208.75C408.209 208.75 410 206.959 410 204.75C410 202.541 408.209 200.75 406 200.75C403.791 200.75 402 202.541 402 204.75C402 206.959 403.791 208.75 406 208.75Z" fill="#FAF7F5"/>
<path d="M406 227.5C408.209 227.5 410 225.709 410 223.5C410 221.291 408.209 219.5 406 219.5C403.791 219.5 402 221.291 402 223.5C402 225.709 403.791 227.5 406 227.5Z" fill="#FAF7F5"/>
<path d="M406 246.25C408.209 246.25 410 244.459 410 242.25C410 240.041 408.209 238.25 406 238.25C403.791 238.25 402 240.041 402 242.25C402 244.459 403.791 246.25 406 246.25Z" fill="#FAF7F5"/>
<path d="M406 265C408.209 265 410 263.209 410 261C410 258.791 408.209 257 406 257C403.791 257 402 258.791 402 261C402 263.209 403.791 265 406 265Z" fill="#FAF7F5"/>
<path d="M423 190C425.209 190 427 188.209 427 186C427 183.791 425.209 182 423 182C420.791 182 419 183.791 419 186C419 188.209 420.791 190 423 190Z" fill="#FAF7F5"/>
<path d="M423 208.75C425.209 208.75 427 206.959 427 204.75C427 202.541 425.209 200.75 423 200.75C420.791 200.75 419 202.541 419 204.75C419 206.959 420.791 208.75 423 208.75Z" fill="#FAF7F5"/>
<path d="M423 227.5C425.209 227.5 427 225.709 427 223.5C427 221.291 425.209 219.5 423 219.5C420.791 219.5 419 221.291 419 223.5C419 225.709 420.791 227.5 423 227.5Z" fill="#FAF7F5"/>
<path d="M423 246.25C425.209 246.25 427 244.459 427 242.25C427 240.041 425.209 238.25 423 238.25C420.791 238.25 419 240.041 419 242.25C419 244.459 420.791 246.25 423 246.25Z" fill="#FAF7F5"/>
<path d="M423 265C425.209 265 427 263.209 427 261C427 258.791 425.209 257 423 257C420.791 257 419 258.791 419 261C419 263.209 420.791 265 423 265Z" fill="#FAF7F5"/>
<path d="M440 190C442.209 190 444 188.209 444 186C444 183.791 442.209 182 440 182C437.791 182 436 183.791 436 186C436 188.209 437.791 190 440 190Z" fill="#FAF7F5"/>
<path d="M440 208.75C442.209 208.75 444 206.959 444 204.75C444 202.541 442.209 200.75 440 200.75C437.791 200.75 436 202.541 436 204.75C436 206.959 437.791 208.75 440 208.75Z" fill="#FAF7F5"/>
<path d="M440 227.5C442.209 227.5 444 225.709 444 223.5C444 221.291 442.209 219.5 440 219.5C437.791 219.5 436 221.291 436 223.5C436 225.709 437.791 227.5 440 227.5Z" fill="#FAF7F5"/>
<path d="M440 246.25C442.209 246.25 444 244.459 444 242.25C444 240.041 442.209 238.25 440 238.25C437.791 238.25 436 240.041 436 242.25C436 244.459 437.791 246.25 440 246.25Z" fill="#FAF7F5"/>
<path d="M440 265C442.209 265 444 263.209 444 261C444 258.791 442.209 257 440 257C437.791 257 436 258.791 436 261C436 263.209 437.791 265 440 265Z" fill="#FAF7F5"/>
<path d="M457 190C459.209 190 461 188.209 461 186C461 183.791 459.209 182 457 182C454.791 182 453 183.791 453 186C453 188.209 454.791 190 457 190Z" fill="#FAF7F5"/>
<path d="M457 208.75C459.209 208.75 461 206.959 461 204.75C461 202.541 459.209 200.75 457 200.75C454.791 200.75 453 202.541 453 204.75C453 206.959 454.791 208.75 457 208.75Z" fill="#FAF7F5"/>
<path d="M457 227.5C459.209 227.5 461 225.709 461 223.5C461 221.291 459.209 219.5 457 219.5C454.791 219.5 453 221.291 453 223.5C453 225.709 454.791 227.5 457 227.5Z" fill="#FAF7F5"/>
<path d="M457 246.25C459.209 246.25 461 244.459 461 242.25C461 240.041 459.209 238.25 457 238.25C454.791 238.25 453 240.041 453 242.25C453 244.459 454.791 246.25 457 246.25Z" fill="#FAF7F5"/>
<path d="M457 265C459.209 265 461 263.209 461 261C461 258.791 459.209 257 457 257C454.791 257 453 258.791 453 261C453 263.209 454.791 265 457 265Z" fill="#FAF7F5"/>
<path d="M474 190C476.209 190 478 188.209 478 186C478 183.791 476.209 182 474 182C471.791 182 470 183.791 470 186C470 188.209 471.791 190 474 190Z" fill="#FAF7F5"/>
<path d="M474 208.75C476.209 208.75 478 206.959 478 204.75C478 202.541 476.209 200.75 474 200.75C471.791 200.75 470 202.541 470 204.75C470 206.959 471.791 208.75 474 208.75Z" fill="#FAF7F5"/>
<path d="M474 227.5C476.209 227.5 478 225.709 478 223.5C478 221.291 476.209 219.5 474 219.5C471.791 219.5 470 221.291 470 223.5C470 225.709 471.791 227.5 474 227.5Z" fill="#FAF7F5"/>
<path d="M474 246.25C476.209 246.25 478 244.459 478 242.25C478 240.041 476.209 238.25 474 238.25C471.791 238.25 470 240.041 470 242.25C470 244.459 471.791 246.25 474 246.25Z" fill="#FAF7F5"/>
<path d="M474 265C476.209 265 478 263.209 478 261C478 258.791 476.209 257 474 257C471.791 257 470 258.791 470 261C470 263.209 471.791 265 474 265Z" fill="#FAF7F5"/>
<path d="M389 59C391.209 59 393 57.2091 393 55C393 52.7909 391.209 51 389 51C386.791 51 385 52.7909 385 55C385 57.2091 386.791 59 389 59Z" fill="#FAF7F5"/>
<path d="M389 77.75C391.209 77.75 393 75.9591 393 73.75C393 71.5409 391.209 69.75 389 69.75C386.791 69.75 385 71.5409 385 73.75C385 75.9591 386.791 77.75 389 77.75Z" fill="#FAF7F5"/>
<path d="M389 96.5C391.209 96.5 393 94.7091 393 92.5C393 90.2909 391.209 88.5 389 88.5C386.791 88.5 385 90.2909 385 92.5C385 94.7091 386.791 96.5 389 96.5Z" fill="#FAF7F5"/>
<path d="M389 115.25C391.209 115.25 393 113.459 393 111.25C393 109.041 391.209 107.25 389 107.25C386.791 107.25 385 109.041 385 111.25C385 113.459 386.791 115.25 389 115.25Z" fill="#FAF7F5"/>
<path d="M389 134C391.209 134 393 132.209 393 130C393 127.791 391.209 126 389 126C386.791 126 385 127.791 385 130C385 132.209 386.791 134 389 134Z" fill="#FAF7F5"/>
<path d="M406 59C408.209 59 410 57.2091 410 55C410 52.7909 408.209 51 406 51C403.791 51 402 52.7909 402 55C402 57.2091 403.791 59 406 59Z" fill="#FAF7F5"/>
<path d="M406 77.75C408.209 77.75 410 75.9591 410 73.75C410 71.5409 408.209 69.75 406 69.75C403.791 69.75 402 71.5409 402 73.75C402 75.9591 403.791 77.75 406 77.75Z" fill="#FAF7F5"/>
<path d="M406 96.5C408.209 96.5 410 94.7091 410 92.5C410 90.2909 408.209 88.5 406 88.5C403.791 88.5 402 90.2909 402 92.5C402 94.7091 403.791 96.5 406 96.5Z" fill="#FAF7F5"/>
<path d="M406 115.25C408.209 115.25 410 113.459 410 111.25C410 109.041 408.209 107.25 406 107.25C403.791 107.25 402 109.041 402 111.25C402 113.459 403.791 115.25 406 115.25Z" fill="#FAF7F5"/>
<path d="M406 134C408.209 134 410 132.209 410 130C410 127.791 408.209 126 406 126C403.791 126 402 127.791 402 130C402 132.209 403.791 134 406 134Z" fill="#FAF7F5"/>
<path d="M423 59C425.209 59 427 57.2091 427 55C427 52.7909 425.209 51 423 51C420.791 51 419 52.7909 419 55C419 57.2091 420.791 59 423 59Z" fill="#FAF7F5"/>
<path d="M423 77.75C425.209 77.75 427 75.9591 427 73.75C427 71.5409 425.209 69.75 423 69.75C420.791 69.75 419 71.5409 419 73.75C419 75.9591 420.791 77.75 423 77.75Z" fill="#FAF7F5"/>
<path d="M423 96.5C425.209 96.5 427 94.7091 427 92.5C427 90.2909 425.209 88.5 423 88.5C420.791 88.5 419 90.2909 419 92.5C419 94.7091 420.791 96.5 423 96.5Z" fill="#FAF7F5"/>
<path d="M423 115.25C425.209 115.25 427 113.459 427 111.25C427 109.041 425.209 107.25 423 107.25C420.791 107.25 419 109.041 419 111.25C419 113.459 420.791 115.25 423 115.25Z" fill="#FAF7F5"/>
<path d="M423 134C425.209 134 427 132.209 427 130C427 127.791 425.209 126 423 126C420.791 126 419 127.791 419 130C419 132.209 420.791 134 423 134Z" fill="#FAF7F5"/>
<path d="M440 59C442.209 59 444 57.2091 444 55C444 52.7909 442.209 51 440 51C437.791 51 436 52.7909 436 55C436 57.2091 437.791 59 440 59Z" fill="#FAF7F5"/>
<path d="M440 77.75C442.209 77.75 444 75.9591 444 73.75C444 71.5409 442.209 69.75 440 69.75C437.791 69.75 436 71.5409 436 73.75C436 75.9591 437.791 77.75 440 77.75Z" fill="#FAF7F5"/>
<path d="M440 96.5C442.209 96.5 444 94.7091 444 92.5C444 90.2909 442.209 88.5 440 88.5C437.791 88.5 436 90.2909 436 92.5C436 94.7091 437.791 96.5 440 96.5Z" fill="#FAF7F5"/>
<path d="M440 115.25C442.209 115.25 444 113.459 444 111.25C444 109.041 442.209 107.25 440 107.25C437.791 107.25 436 109.041 436 111.25C436 113.459 437.791 115.25 440 115.25Z" fill="#FAF7F5"/>
<path d="M440 134C442.209 134 444 132.209 444 130C444 127.791 442.209 126 440 126C437.791 126 436 127.791 436 130C436 132.209 437.791 134 440 134Z" fill="#FAF7F5"/>
<path d="M457 59C459.209 59 461 57.2091 461 55C461 52.7909 459.209 51 457 51C454.791 51 453 52.7909 453 55C453 57.2091 454.791 59 457 59Z" fill="#FAF7F5"/>
<path d="M457 77.75C459.209 77.75 461 75.9591 461 73.75C461 71.5409 459.209 69.75 457 69.75C454.791 69.75 453 71.5409 453 73.75C453 75.9591 454.791 77.75 457 77.75Z" fill="#FAF7F5"/>
<path d="M457 96.5C459.209 96.5 461 94.7091 461 92.5C461 90.2909 459.209 88.5 457 88.5C454.791 88.5 453 90.2909 453 92.5C453 94.7091 454.791 96.5 457 96.5Z" fill="#FAF7F5"/>
<path d="M457 115.25C459.209 115.25 461 113.459 461 111.25C461 109.041 459.209 107.25 457 107.25C454.791 107.25 453 109.041 453 111.25C453 113.459 454.791 115.25 457 115.25Z" fill="#FAF7F5"/>
<path d="M457 134C459.209 134 461 132.209 461 130C461 127.791 459.209 126 457 126C454.791 126 453 127.791 453 130C453 132.209 454.791 134 457 134Z" fill="#FAF7F5"/>
<path d="M474 59C476.209 59 478 57.2091 478 55C478 52.7909 476.209 51 474 51C471.791 51 470 52.7909 470 55C470 57.2091 471.791 59 474 59Z" fill="#FAF7F5"/>
<path d="M474 77.75C476.209 77.75 478 75.9591 478 73.75C478 71.5409 476.209 69.75 474 69.75C471.791 69.75 470 71.5409 470 73.75C470 75.9591 471.791 77.75 474 77.75Z" fill="#FAF7F5"/>
<path d="M474 96.5C476.209 96.5 478 94.7091 478 92.5C478 90.2909 476.209 88.5 474 88.5C471.791 88.5 470 90.2909 470 92.5C470 94.7091 471.791 96.5 474 96.5Z" fill="#FAF7F5"/>
<path d="M474 115.25C476.209 115.25 478 113.459 478 111.25C478 109.041 476.209 107.25 474 107.25C471.791 107.25 470 109.041 470 111.25C470 113.459 471.791 115.25 474 115.25Z" fill="#FAF7F5"/>
<path d="M474 134C476.209 134 478 132.209 478 130C478 127.791 476.209 126 474 126C471.791 126 470 127.791 470 130C470 132.209 471.791 134 474 134Z" fill="#FAF7F5"/>
<path d="M304 188C306.209 188 308 186.209 308 184C308 181.791 306.209 180 304 180C301.791 180 300 181.791 300 184C300 186.209 301.791 188 304 188Z" fill="#FAF7F5"/>
<path d="M304 206.75C306.209 206.75 308 204.959 308 202.75C308 200.541 306.209 198.75 304 198.75C301.791 198.75 300 200.541 300 202.75C300 204.959 301.791 206.75 304 206.75Z" fill="#FAF7F5"/>
<path d="M304 225.5C306.209 225.5 308 223.709 308 221.5C308 219.291 306.209 217.5 304 217.5C301.791 217.5 300 219.291 300 221.5C300 223.709 301.791 225.5 304 225.5Z" fill="#FAF7F5"/>
<path d="M304 244.25C306.209 244.25 308 242.459 308 240.25C308 238.041 306.209 236.25 304 236.25C301.791 236.25 300 238.041 300 240.25C300 242.459 301.791 244.25 304 244.25Z" fill="#FAF7F5"/>
<path d="M304 263C306.209 263 308 261.209 308 259C308 256.791 306.209 255 304 255C301.791 255 300 256.791 300 259C300 261.209 301.791 263 304 263Z" fill="#FAF7F5"/>
<path d="M321 188C323.209 188 325 186.209 325 184C325 181.791 323.209 180 321 180C318.791 180 317 181.791 317 184C317 186.209 318.791 188 321 188Z" fill="#FAF7F5"/>
<path d="M321 206.75C323.209 206.75 325 204.959 325 202.75C325 200.541 323.209 198.75 321 198.75C318.791 198.75 317 200.541 317 202.75C317 204.959 318.791 206.75 321 206.75Z" fill="#FAF7F5"/>
<path d="M321 225.5C323.209 225.5 325 223.709 325 221.5C325 219.291 323.209 217.5 321 217.5C318.791 217.5 317 219.291 317 221.5C317 223.709 318.791 225.5 321 225.5Z" fill="#FAF7F5"/>
<path d="M321 244.25C323.209 244.25 325 242.459 325 240.25C325 238.041 323.209 236.25 321 236.25C318.791 236.25 317 238.041 317 240.25C317 242.459 318.791 244.25 321 244.25Z" fill="#FAF7F5"/>
<path d="M321 263C323.209 263 325 261.209 325 259C325 256.791 323.209 255 321 255C318.791 255 317 256.791 317 259C317 261.209 318.791 263 321 263Z" fill="#FAF7F5"/>
<path d="M338 188C340.209 188 342 186.209 342 184C342 181.791 340.209 180 338 180C335.791 180 334 181.791 334 184C334 186.209 335.791 188 338 188Z" fill="#FAF7F5"/>
<path d="M338 206.75C340.209 206.75 342 204.959 342 202.75C342 200.541 340.209 198.75 338 198.75C335.791 198.75 334 200.541 334 202.75C334 204.959 335.791 206.75 338 206.75Z" fill="#FAF7F5"/>
<path d="M338 225.5C340.209 225.5 342 223.709 342 221.5C342 219.291 340.209 217.5 338 217.5C335.791 217.5 334 219.291 334 221.5C334 223.709 335.791 225.5 338 225.5Z" fill="#FAF7F5"/>
<path d="M338 244.25C340.209 244.25 342 242.459 342 240.25C342 238.041 340.209 236.25 338 236.25C335.791 236.25 334 238.041 334 240.25C334 242.459 335.791 244.25 338 244.25Z" fill="#FAF7F5"/>
<path d="M338 263C340.209 263 342 261.209 342 259C342 256.791 340.209 255 338 255C335.791 255 334 256.791 334 259C334 261.209 335.791 263 338 263Z" fill="#FAF7F5"/>
<path d="M355 189C357.209 189 359 187.209 359 185C359 182.791 357.209 181 355 181C352.791 181 351 182.791 351 185C351 187.209 352.791 189 355 189Z" fill="#FAF7F5"/>
<path d="M355 207.75C357.209 207.75 359 205.959 359 203.75C359 201.541 357.209 199.75 355 199.75C352.791 199.75 351 201.541 351 203.75C351 205.959 352.791 207.75 355 207.75Z" fill="#FAF7F5"/>
<path d="M355 226.5C357.209 226.5 359 224.709 359 222.5C359 220.291 357.209 218.5 355 218.5C352.791 218.5 351 220.291 351 222.5C351 224.709 352.791 226.5 355 226.5Z" fill="#FAF7F5"/>
<path d="M355 245.25C357.209 245.25 359 243.459 359 241.25C359 239.041 357.209 237.25 355 237.25C352.791 237.25 351 239.041 351 241.25C351 243.459 352.791 245.25 355 245.25Z" fill="#FAF7F5"/>
<path d="M355 264C357.209 264 359 262.209 359 260C359 257.791 357.209 256 355 256C352.791 256 351 257.791 351 260C351 262.209 352.791 264 355 264Z" fill="#FAF7F5"/>
<path d="M372 189C374.209 189 376 187.209 376 185C376 182.791 374.209 181 372 181C369.791 181 368 182.791 368 185C368 187.209 369.791 189 372 189Z" fill="#FAF7F5"/>
<path d="M372 207.75C374.209 207.75 376 205.959 376 203.75C376 201.541 374.209 199.75 372 199.75C369.791 199.75 368 201.541 368 203.75C368 205.959 369.791 207.75 372 207.75Z" fill="#FAF7F5"/>
<path d="M372 226.5C374.209 226.5 376 224.709 376 222.5C376 220.291 374.209 218.5 372 218.5C369.791 218.5 368 220.291 368 222.5C368 224.709 369.791 226.5 372 226.5Z" fill="#FAF7F5"/>
<path d="M372 245.25C374.209 245.25 376 243.459 376 241.25C376 239.041 374.209 237.25 372 237.25C369.791 237.25 368 239.041 368 241.25C368 243.459 369.791 245.25 372 245.25Z" fill="#FAF7F5"/>
<path d="M372 264C374.209 264 376 262.209 376 260C376 257.791 374.209 256 372 256C369.791 256 368 257.791 368 260C368 262.209 369.791 264 372 264Z" fill="#FAF7F5"/>
<path d="M406 190C408.209 190 410 188.209 410 186C410 183.791 408.209 182 406 182C403.791 182 402 183.791 402 186C402 188.209 403.791 190 406 190Z" fill="#FAF7F5"/>
<path d="M406 208.5C408.209 208.5 410 206.709 410 204.5C410 202.291 408.209 200.5 406 200.5C403.791 200.5 402 202.291 402 204.5C402 206.709 403.791 208.5 406 208.5Z" fill="#FAF7F5"/>
<path d="M406 227C408.209 227 410 225.209 410 223C410 220.791 408.209 219 406 219C403.791 219 402 220.791 402 223C402 225.209 403.791 227 406 227Z" fill="#FAF7F5"/>
<path d="M406 245.5C408.209 245.5 410 243.709 410 241.5C410 239.291 408.209 237.5 406 237.5C403.791 237.5 402 239.291 402 241.5C402 243.709 403.791 245.5 406 245.5Z" fill="#FAF7F5"/>
<path d="M406 264C408.209 264 410 262.209 410 260C410 257.791 408.209 256 406 256C403.791 256 402 257.791 402 260C402 262.209 403.791 264 406 264Z" fill="#FAF7F5"/>
<path d="M423 190C425.209 190 427 188.209 427 186C427 183.791 425.209 182 423 182C420.791 182 419 183.791 419 186C419 188.209 420.791 190 423 190Z" fill="#FAF7F5"/>
<path d="M423 208.75C425.209 208.75 427 206.959 427 204.75C427 202.541 425.209 200.75 423 200.75C420.791 200.75 419 202.541 419 204.75C419 206.959 420.791 208.75 423 208.75Z" fill="#FAF7F5"/>
<path d="M423 227.5C425.209 227.5 427 225.709 427 223.5C427 221.291 425.209 219.5 423 219.5C420.791 219.5 419 221.291 419 223.5C419 225.709 420.791 227.5 423 227.5Z" fill="#FAF7F5"/>
<path d="M423 246.25C425.209 246.25 427 244.459 427 242.25C427 240.041 425.209 238.25 423 238.25C420.791 238.25 419 240.041 419 242.25C419 244.459 420.791 246.25 423 246.25Z" fill="#FAF7F5"/>
<path d="M423 265C425.209 265 427 263.209 427 261C427 258.791 425.209 257 423 257C420.791 257 419 258.791 419 261C419 263.209 420.791 265 423 265Z" fill="#FAF7F5"/>
<path d="M481 150H1V164H481V150Z" fill="#D9D9D9" fill-opacity="0.3"/>
<path d="M287 241L457 240" stroke="#EA8EAD" stroke-width="4"/>
<path d="M355 222L147 223" stroke="#FFD58D" stroke-width="4"/>
<path d="M15 68L15 147" stroke="#70BCFD" stroke-width="4"/>
</g>
<defs>
<clipPath id="clip0_198_1009">
<rect width="481" height="320" fill="white"/>
</clipPath>
</defs>
</svg>
