<svg width="481" height="320" viewBox="0 0 481 320" fill="none" xmlns="http://www.w3.org/2000/svg">
<rect x="1" width="480" height="320" fill="white"/>
<rect x="1" width="480" height="320" fill="white"/>
<line x1="1" y1="43" x2="481.004" y2="43" stroke="#FF8236" stroke-width="4"/>
<line x1="1" y1="6" x2="481.004" y2="6" stroke="#C1F1DD" stroke-width="4"/>
<line x1="1" y1="278" x2="481.004" y2="278" stroke="#FF8236" stroke-width="4"/>
<circle cx="15" cy="184" r="4" fill="#FAF7F5"/>
<circle cx="15" cy="202.75" r="4" fill="#FAF7F5"/>
<circle cx="15" cy="221.5" r="4" fill="#FAF7F5"/>
<circle cx="15" cy="240.25" r="4" fill="#FAF7F5"/>
<circle cx="15" cy="259" r="4" fill="#FAF7F5"/>
<circle cx="15" cy="55" r="4" fill="#FAF7F5"/>
<circle cx="15" cy="73.75" r="4" fill="#FAF7F5"/>
<circle cx="15" cy="92.5" r="4" fill="#FAF7F5"/>
<circle cx="15" cy="111.25" r="4" fill="#FAF7F5"/>
<circle cx="15" cy="130" r="4" fill="#FAF7F5"/>
<circle cx="32" cy="55" r="4" fill="#FAF7F5"/>
<circle cx="32" cy="73.75" r="4" fill="#FAF7F5"/>
<circle cx="32" cy="92.5" r="4" fill="#FAF7F5"/>
<circle cx="32" cy="111.25" r="4" fill="#FAF7F5"/>
<circle cx="32" cy="130" r="4" fill="#FAF7F5"/>
<circle cx="49" cy="56" r="4" fill="#FAF7F5"/>
<circle cx="49" cy="74.75" r="4" fill="#FAF7F5"/>
<circle cx="49" cy="93.5" r="4" fill="#FAF7F5"/>
<circle cx="49" cy="112.25" r="4" fill="#FAF7F5"/>
<circle cx="49" cy="131" r="4" fill="#FAF7F5"/>
<circle cx="32" cy="15" r="4" fill="#FAF7F5"/>
<circle cx="32" cy="34" r="4" fill="#FAF7F5"/>
<circle cx="49" cy="15" r="4" fill="#FAF7F5"/>
<circle cx="49" cy="34" r="4" fill="#FAF7F5"/>
<circle cx="66" cy="15" r="4" fill="#FAF7F5"/>
<circle cx="66" cy="34" r="4" fill="#FAF7F5"/>
<circle cx="83" cy="15" r="4" fill="#FAF7F5"/>
<circle cx="83" cy="34" r="4" fill="#FAF7F5"/>
<circle cx="83" cy="15" r="4" fill="#FAF7F5"/>
<circle cx="83" cy="34" r="4" fill="#FAF7F5"/>
<circle cx="100" cy="15" r="4" fill="#FAF7F5"/>
<circle cx="100" cy="34" r="4" fill="#FAF7F5"/>
<circle cx="117" cy="15" r="4" fill="#FAF7F5"/>
<circle cx="117" cy="34" r="4" fill="#FAF7F5"/>
<circle cx="134" cy="15" r="4" fill="#FAF7F5"/>
<circle cx="134" cy="34" r="4" fill="#FAF7F5"/>
<circle cx="151" cy="15" r="4" fill="#FAF7F5"/>
<circle cx="151" cy="34" r="4" fill="#FAF7F5"/>
<circle cx="168" cy="15" r="4" fill="#FAF7F5"/>
<circle cx="168" cy="34" r="4" fill="#FAF7F5"/>
<circle cx="185" cy="15" r="4" fill="#FAF7F5"/>
<circle cx="185" cy="34" r="4" fill="#FAF7F5"/>
<circle cx="202" cy="15" r="4" fill="#FAF7F5"/>
<circle cx="202" cy="34" r="4" fill="#FAF7F5"/>
<circle cx="219" cy="15" r="4" fill="#FAF7F5"/>
<circle cx="219" cy="34" r="4" fill="#FAF7F5"/>
<circle cx="236" cy="15" r="4" fill="#FAF7F5"/>
<circle cx="236" cy="34" r="4" fill="#FAF7F5"/>
<circle cx="253" cy="15" r="4" fill="#FAF7F5"/>
<circle cx="253" cy="34" r="4" fill="#FAF7F5"/>
<circle cx="270" cy="15" r="4" fill="#FAF7F5"/>
<circle cx="270" cy="34" r="4" fill="#FAF7F5"/>
<circle cx="287" cy="15" r="4" fill="#FAF7F5"/>
<circle cx="287" cy="34" r="4" fill="#FAF7F5"/>
<circle cx="304" cy="15" r="4" fill="#FAF7F5"/>
<circle cx="304" cy="34" r="4" fill="#FAF7F5"/>
<circle cx="321" cy="15" r="4" fill="#FAF7F5"/>
<circle cx="321" cy="34" r="4" fill="#FAF7F5"/>
<circle cx="338" cy="15" r="4" fill="#FAF7F5"/>
<circle cx="338" cy="34" r="4" fill="#FAF7F5"/>
<circle cx="355" cy="15" r="4" fill="#FAF7F5"/>
<circle cx="355" cy="34" r="4" fill="#FAF7F5"/>
<circle cx="372" cy="15" r="4" fill="#FAF7F5"/>
<circle cx="372" cy="34" r="4" fill="#FAF7F5"/>
<circle cx="389" cy="15" r="4" fill="#FAF7F5"/>
<circle cx="389" cy="34" r="4" fill="#FAF7F5"/>
<circle cx="406" cy="15" r="4" fill="#FAF7F5"/>
<circle cx="406" cy="34" r="4" fill="#FAF7F5"/>
<circle cx="423" cy="15" r="4" fill="#FAF7F5"/>
<circle cx="423" cy="34" r="4" fill="#FAF7F5"/>
<circle cx="440" cy="15" r="4" fill="#FAF7F5"/>
<circle cx="440" cy="34" r="4" fill="#FAF7F5"/>
<circle cx="440" cy="15" r="4" fill="#FAF7F5"/>
<circle cx="440" cy="34" r="4" fill="#FAF7F5"/>
<line x1="1" y1="6" x2="481.004" y2="6" stroke="#C1F1DD" stroke-width="4"/>
<circle cx="32" cy="15" r="4" fill="#FAF7F5"/>
<circle cx="32" cy="34" r="4" fill="#FAF7F5"/>
<circle cx="49" cy="15" r="4" fill="#FAF7F5"/>
<circle cx="49" cy="34" r="4" fill="#FAF7F5"/>
<circle cx="66" cy="15" r="4" fill="#FAF7F5"/>
<circle cx="66" cy="34" r="4" fill="#FAF7F5"/>
<circle cx="83" cy="15" r="4" fill="#FAF7F5"/>
<circle cx="83" cy="34" r="4" fill="#FAF7F5"/>
<circle cx="83" cy="15" r="4" fill="#FAF7F5"/>
<circle cx="83" cy="34" r="4" fill="#FAF7F5"/>
<circle cx="100" cy="15" r="4" fill="#FAF7F5"/>
<circle cx="100" cy="34" r="4" fill="#FAF7F5"/>
<circle cx="117" cy="15" r="4" fill="#FAF7F5"/>
<circle cx="117" cy="34" r="4" fill="#FAF7F5"/>
<circle cx="134" cy="15" r="4" fill="#FAF7F5"/>
<circle cx="134" cy="34" r="4" fill="#FAF7F5"/>
<circle cx="151" cy="15" r="4" fill="#FAF7F5"/>
<circle cx="151" cy="34" r="4" fill="#FAF7F5"/>
<circle cx="168" cy="15" r="4" fill="#FAF7F5"/>
<circle cx="168" cy="34" r="4" fill="#FAF7F5"/>
<circle cx="185" cy="15" r="4" fill="#FAF7F5"/>
<circle cx="185" cy="34" r="4" fill="#FAF7F5"/>
<circle cx="202" cy="15" r="4" fill="#FAF7F5"/>
<circle cx="202" cy="34" r="4" fill="#FAF7F5"/>
<circle cx="219" cy="15" r="4" fill="#FAF7F5"/>
<circle cx="219" cy="34" r="4" fill="#FAF7F5"/>
<circle cx="236" cy="15" r="4" fill="#FAF7F5"/>
<circle cx="236" cy="34" r="4" fill="#FAF7F5"/>
<circle cx="253" cy="15" r="4" fill="#FAF7F5"/>
<circle cx="253" cy="34" r="4" fill="#FAF7F5"/>
<circle cx="270" cy="15" r="4" fill="#FAF7F5"/>
<circle cx="270" cy="34" r="4" fill="#FAF7F5"/>
<circle cx="287" cy="15" r="4" fill="#FAF7F5"/>
<circle cx="287" cy="34" r="4" fill="#FAF7F5"/>
<circle cx="304" cy="15" r="4" fill="#FAF7F5"/>
<circle cx="304" cy="34" r="4" fill="#FAF7F5"/>
<circle cx="321" cy="15" r="4" fill="#FAF7F5"/>
<circle cx="321" cy="34" r="4" fill="#FAF7F5"/>
<circle cx="338" cy="15" r="4" fill="#FAF7F5"/>
<circle cx="338" cy="34" r="4" fill="#FAF7F5"/>
<circle cx="355" cy="15" r="4" fill="#FAF7F5"/>
<circle cx="355" cy="34" r="4" fill="#FAF7F5"/>
<circle cx="372" cy="15" r="4" fill="#FAF7F5"/>
<circle cx="372" cy="34" r="4" fill="#FAF7F5"/>
<circle cx="389" cy="15" r="4" fill="#FAF7F5"/>
<circle cx="389" cy="34" r="4" fill="#FAF7F5"/>
<circle cx="406" cy="15" r="4" fill="#FAF7F5"/>
<circle cx="406" cy="34" r="4" fill="#FAF7F5"/>
<circle cx="423" cy="15" r="4" fill="#FAF7F5"/>
<circle cx="423" cy="34" r="4" fill="#FAF7F5"/>
<circle cx="440" cy="15" r="4" fill="#FAF7F5"/>
<circle cx="440" cy="34" r="4" fill="#FAF7F5"/>
<circle cx="440" cy="15" r="4" fill="#FAF7F5"/>
<circle cx="440" cy="34" r="4" fill="#FAF7F5"/>
<line x1="1" y1="315" x2="481.004" y2="315" stroke="#FF8236" stroke-width="4"/>
<line x1="1" y1="278" x2="481.004" y2="278" stroke="#C1F1DD" stroke-width="4"/>
<circle cx="32" cy="287" r="4" fill="#FAF7F5"/>
<circle cx="32" cy="306" r="4" fill="#FAF7F5"/>
<circle cx="49" cy="287" r="4" fill="#FAF7F5"/>
<circle cx="49" cy="306" r="4" fill="#FAF7F5"/>
<circle cx="66" cy="287" r="4" fill="#FAF7F5"/>
<circle cx="66" cy="306" r="4" fill="#FAF7F5"/>
<circle cx="83" cy="287" r="4" fill="#FAF7F5"/>
<circle cx="83" cy="306" r="4" fill="#FAF7F5"/>
<circle cx="83" cy="287" r="4" fill="#FAF7F5"/>
<circle cx="83" cy="306" r="4" fill="#FAF7F5"/>
<circle cx="100" cy="287" r="4" fill="#FAF7F5"/>
<circle cx="100" cy="306" r="4" fill="#FAF7F5"/>
<circle cx="117" cy="287" r="4" fill="#FAF7F5"/>
<circle cx="117" cy="306" r="4" fill="#FAF7F5"/>
<circle cx="134" cy="287" r="4" fill="#FAF7F5"/>
<circle cx="134" cy="306" r="4" fill="#FAF7F5"/>
<circle cx="151" cy="287" r="4" fill="#FAF7F5"/>
<circle cx="151" cy="306" r="4" fill="#FAF7F5"/>
<circle cx="168" cy="287" r="4" fill="#FAF7F5"/>
<circle cx="168" cy="306" r="4" fill="#FAF7F5"/>
<circle cx="185" cy="287" r="4" fill="#FAF7F5"/>
<circle cx="185" cy="306" r="4" fill="#FAF7F5"/>
<circle cx="202" cy="287" r="4" fill="#FAF7F5"/>
<circle cx="202" cy="306" r="4" fill="#FAF7F5"/>
<circle cx="219" cy="287" r="4" fill="#FAF7F5"/>
<circle cx="219" cy="306" r="4" fill="#FAF7F5"/>
<circle cx="236" cy="287" r="4" fill="#FAF7F5"/>
<circle cx="236" cy="306" r="4" fill="#FAF7F5"/>
<circle cx="253" cy="287" r="4" fill="#FAF7F5"/>
<circle cx="253" cy="306" r="4" fill="#FAF7F5"/>
<circle cx="270" cy="287" r="4" fill="#FAF7F5"/>
<circle cx="270" cy="306" r="4" fill="#FAF7F5"/>
<circle cx="287" cy="287" r="4" fill="#FAF7F5"/>
<circle cx="287" cy="306" r="4" fill="#FAF7F5"/>
<circle cx="304" cy="287" r="4" fill="#FAF7F5"/>
<circle cx="304" cy="306" r="4" fill="#FAF7F5"/>
<circle cx="321" cy="287" r="4" fill="#FAF7F5"/>
<circle cx="321" cy="306" r="4" fill="#FAF7F5"/>
<circle cx="338" cy="287" r="4" fill="#FAF7F5"/>
<circle cx="338" cy="306" r="4" fill="#FAF7F5"/>
<circle cx="355" cy="287" r="4" fill="#FAF7F5"/>
<circle cx="355" cy="306" r="4" fill="#FAF7F5"/>
<circle cx="372" cy="287" r="4" fill="#FAF7F5"/>
<circle cx="372" cy="306" r="4" fill="#FAF7F5"/>
<circle cx="389" cy="287" r="4" fill="#FAF7F5"/>
<circle cx="389" cy="306" r="4" fill="#FAF7F5"/>
<circle cx="406" cy="287" r="4" fill="#FAF7F5"/>
<circle cx="406" cy="306" r="4" fill="#FAF7F5"/>
<circle cx="423" cy="287" r="4" fill="#FAF7F5"/>
<circle cx="423" cy="306" r="4" fill="#FAF7F5"/>
<circle cx="440" cy="287" r="4" fill="#FAF7F5"/>
<circle cx="440" cy="306" r="4" fill="#FAF7F5"/>
<circle cx="440" cy="287" r="4" fill="#FAF7F5"/>
<circle cx="440" cy="306" r="4" fill="#FAF7F5"/>
<circle cx="66" cy="56" r="4" fill="#FAF7F5"/>
<circle cx="66" cy="74.75" r="4" fill="#FAF7F5"/>
<circle cx="66" cy="93.5" r="4" fill="#FAF7F5"/>
<circle cx="66" cy="112.25" r="4" fill="#FAF7F5"/>
<circle cx="66" cy="131" r="4" fill="#FAF7F5"/>
<circle cx="83" cy="56" r="4" fill="#FAF7F5"/>
<circle cx="83" cy="74.75" r="4" fill="#FAF7F5"/>
<circle cx="83" cy="93.5" r="4" fill="#FAF7F5"/>
<circle cx="83" cy="112.25" r="4" fill="#FAF7F5"/>
<circle cx="83" cy="131" r="4" fill="#FAF7F5"/>
<circle cx="100" cy="56" r="4" fill="#FAF7F5"/>
<circle cx="100" cy="74.75" r="4" fill="#FAF7F5"/>
<circle cx="100" cy="93.5" r="4" fill="#FAF7F5"/>
<circle cx="100" cy="112.25" r="4" fill="#FAF7F5"/>
<circle cx="100" cy="131" r="4" fill="#FAF7F5"/>
<circle cx="117" cy="56" r="4" fill="#FAF7F5"/>
<circle cx="117" cy="74.75" r="4" fill="#FAF7F5"/>
<circle cx="117" cy="93.5" r="4" fill="#FAF7F5"/>
<circle cx="117" cy="112.25" r="4" fill="#FAF7F5"/>
<circle cx="117" cy="131" r="4" fill="#FAF7F5"/>
<circle cx="134" cy="56" r="4" fill="#FAF7F5"/>
<circle cx="134" cy="74.75" r="4" fill="#FAF7F5"/>
<circle cx="134" cy="93.5" r="4" fill="#FAF7F5"/>
<circle cx="134" cy="112.25" r="4" fill="#FAF7F5"/>
<circle cx="134" cy="131" r="4" fill="#FAF7F5"/>
<circle cx="151" cy="55" r="4" fill="#FAF7F5"/>
<circle cx="151" cy="73.75" r="4" fill="#FAF7F5"/>
<circle cx="151" cy="92.5" r="4" fill="#FAF7F5"/>
<circle cx="151" cy="111.25" r="4" fill="#FAF7F5"/>
<circle cx="151" cy="130" r="4" fill="#FAF7F5"/>
<circle cx="168" cy="55" r="4" fill="#FAF7F5"/>
<circle cx="168" cy="73.75" r="4" fill="#FAF7F5"/>
<circle cx="168" cy="92.5" r="4" fill="#FAF7F5"/>
<circle cx="168" cy="111.25" r="4" fill="#FAF7F5"/>
<circle cx="168" cy="130" r="4" fill="#FAF7F5"/>
<circle cx="185" cy="56" r="4" fill="#FAF7F5"/>
<circle cx="185" cy="74.75" r="4" fill="#FAF7F5"/>
<circle cx="185" cy="93.5" r="4" fill="#FAF7F5"/>
<circle cx="185" cy="112.25" r="4" fill="#FAF7F5"/>
<circle cx="185" cy="131" r="4" fill="#FAF7F5"/>
<circle cx="202" cy="56" r="4" fill="#FAF7F5"/>
<circle cx="202" cy="74.75" r="4" fill="#FAF7F5"/>
<circle cx="202" cy="93.5" r="4" fill="#FAF7F5"/>
<circle cx="202" cy="112.25" r="4" fill="#FAF7F5"/>
<circle cx="202" cy="131" r="4" fill="#FAF7F5"/>
<circle cx="219" cy="56" r="4" fill="#FAF7F5"/>
<circle cx="219" cy="74.75" r="4" fill="#FAF7F5"/>
<circle cx="219" cy="93.5" r="4" fill="#FAF7F5"/>
<circle cx="219" cy="112.25" r="4" fill="#FAF7F5"/>
<circle cx="219" cy="131" r="4" fill="#FAF7F5"/>
<circle cx="236" cy="56" r="4" fill="#FAF7F5"/>
<circle cx="236" cy="74.75" r="4" fill="#FAF7F5"/>
<circle cx="236" cy="93.5" r="4" fill="#FAF7F5"/>
<circle cx="236" cy="112.25" r="4" fill="#FAF7F5"/>
<circle cx="236" cy="131" r="4" fill="#FAF7F5"/>
<circle cx="253" cy="56" r="4" fill="#FAF7F5"/>
<circle cx="253" cy="74.75" r="4" fill="#FAF7F5"/>
<circle cx="253" cy="93.5" r="4" fill="#FAF7F5"/>
<circle cx="253" cy="112.25" r="4" fill="#FAF7F5"/>
<circle cx="253" cy="131" r="4" fill="#FAF7F5"/>
<circle cx="270" cy="56" r="4" fill="#FAF7F5"/>
<circle cx="270" cy="74.75" r="4" fill="#FAF7F5"/>
<circle cx="270" cy="93.5" r="4" fill="#FAF7F5"/>
<circle cx="270" cy="112.25" r="4" fill="#FAF7F5"/>
<circle cx="270" cy="131" r="4" fill="#FAF7F5"/>
<circle cx="287" cy="54" r="4" fill="#FAF7F5"/>
<circle cx="287" cy="72.75" r="4" fill="#FAF7F5"/>
<circle cx="287" cy="91.5" r="4" fill="#FAF7F5"/>
<circle cx="287" cy="110.25" r="4" fill="#FAF7F5"/>
<circle cx="287" cy="129" r="4" fill="#FAF7F5"/>
<circle cx="304" cy="54" r="4" fill="#FAF7F5"/>
<circle cx="304" cy="72.75" r="4" fill="#FAF7F5"/>
<circle cx="304" cy="91.5" r="4" fill="#FAF7F5"/>
<circle cx="304" cy="110.25" r="4" fill="#FAF7F5"/>
<circle cx="304" cy="129" r="4" fill="#FAF7F5"/>
<circle cx="321" cy="55" r="4" fill="#FAF7F5"/>
<circle cx="321" cy="73.75" r="4" fill="#FAF7F5"/>
<circle cx="321" cy="92.5" r="4" fill="#FAF7F5"/>
<circle cx="321" cy="111.25" r="4" fill="#FAF7F5"/>
<circle cx="321" cy="130" r="4" fill="#FAF7F5"/>
<circle cx="338" cy="55" r="4" fill="#FAF7F5"/>
<circle cx="338" cy="73.75" r="4" fill="#FAF7F5"/>
<circle cx="338" cy="92.5" r="4" fill="#FAF7F5"/>
<circle cx="338" cy="111.25" r="4" fill="#FAF7F5"/>
<circle cx="338" cy="130" r="4" fill="#FAF7F5"/>
<circle cx="355" cy="55" r="4" fill="#FAF7F5"/>
<circle cx="355" cy="73.75" r="4" fill="#FAF7F5"/>
<circle cx="355" cy="92.5" r="4" fill="#FAF7F5"/>
<circle cx="355" cy="111.25" r="4" fill="#FAF7F5"/>
<circle cx="355" cy="130" r="4" fill="#FAF7F5"/>
<circle cx="355" cy="130" r="4" fill="#FAF7F5"/>
<circle cx="355" cy="130" r="4" fill="#FAF7F5"/>
<circle cx="355" cy="130" r="4" fill="#FAF7F5"/>
<circle cx="355" cy="130" r="4" fill="#FAF7F5"/>
<circle cx="355" cy="130" r="4" fill="#FAF7F5"/>
<circle cx="372" cy="55" r="4" fill="#FAF7F5"/>
<circle cx="372" cy="73.75" r="4" fill="#FAF7F5"/>
<circle cx="372" cy="92.5" r="4" fill="#FAF7F5"/>
<circle cx="372" cy="111.25" r="4" fill="#FAF7F5"/>
<circle cx="372" cy="130" r="4" fill="#FAF7F5"/>
<circle cx="372" cy="130" r="4" fill="#FAF7F5"/>
<circle cx="372" cy="130" r="4" fill="#FAF7F5"/>
<circle cx="372" cy="130" r="4" fill="#FAF7F5"/>
<circle cx="372" cy="130" r="4" fill="#FAF7F5"/>
<circle cx="372" cy="130" r="4" fill="#FAF7F5"/>
<circle cx="389" cy="55" r="4" fill="#FAF7F5"/>
<circle cx="389" cy="73.75" r="4" fill="#FAF7F5"/>
<circle cx="389" cy="92.5" r="4" fill="#FAF7F5"/>
<circle cx="389" cy="111.25" r="4" fill="#FAF7F5"/>
<circle cx="389" cy="130" r="4" fill="#FAF7F5"/>
<circle cx="406" cy="55" r="4" fill="#FAF7F5"/>
<circle cx="406" cy="73.75" r="4" fill="#FAF7F5"/>
<circle cx="406" cy="92.5" r="4" fill="#FAF7F5"/>
<circle cx="406" cy="111.25" r="4" fill="#FAF7F5"/>
<circle cx="406" cy="130" r="4" fill="#FAF7F5"/>
<circle cx="32" cy="184" r="4" fill="#FAF7F5"/>
<circle cx="32" cy="202.75" r="4" fill="#FAF7F5"/>
<circle cx="32" cy="221.5" r="4" fill="#FAF7F5"/>
<circle cx="32" cy="240.25" r="4" fill="#FAF7F5"/>
<circle cx="32" cy="259" r="4" fill="#FAF7F5"/>
<circle cx="49" cy="184" r="4" fill="#FAF7F5"/>
<circle cx="49" cy="202.75" r="4" fill="#FAF7F5"/>
<circle cx="49" cy="221.5" r="4" fill="#FAF7F5"/>
<circle cx="49" cy="240.25" r="4" fill="#FAF7F5"/>
<circle cx="49" cy="259" r="4" fill="#FAF7F5"/>
<circle cx="66" cy="185" r="4" fill="#FAF7F5"/>
<circle cx="66" cy="203.75" r="4" fill="#FAF7F5"/>
<circle cx="66" cy="222.5" r="4" fill="#FAF7F5"/>
<circle cx="66" cy="241.25" r="4" fill="#FAF7F5"/>
<circle cx="66" cy="260" r="4" fill="#FAF7F5"/>
<circle cx="83" cy="185" r="4" fill="#FAF7F5"/>
<circle cx="83" cy="203.75" r="4" fill="#FAF7F5"/>
<circle cx="83" cy="222.5" r="4" fill="#FAF7F5"/>
<circle cx="83" cy="241.25" r="4" fill="#FAF7F5"/>
<circle cx="83" cy="260" r="4" fill="#FAF7F5"/>
<circle cx="100" cy="185" r="4" fill="#FAF7F5"/>
<circle cx="100" cy="203.75" r="4" fill="#FAF7F5"/>
<circle cx="100" cy="222.5" r="4" fill="#FAF7F5"/>
<circle cx="100" cy="241.25" r="4" fill="#FAF7F5"/>
<circle cx="100" cy="260" r="4" fill="#FAF7F5"/>
<circle cx="117" cy="185" r="4" fill="#FAF7F5"/>
<circle cx="117" cy="203.75" r="4" fill="#FAF7F5"/>
<circle cx="117" cy="222.5" r="4" fill="#FAF7F5"/>
<circle cx="117" cy="241.25" r="4" fill="#FAF7F5"/>
<circle cx="117" cy="260" r="4" fill="#FAF7F5"/>
<circle cx="134" cy="185" r="4" fill="#FAF7F5"/>
<circle cx="134" cy="203.75" r="4" fill="#FAF7F5"/>
<circle cx="134" cy="222.5" r="4" fill="#FAF7F5"/>
<circle cx="134" cy="241.25" r="4" fill="#FAF7F5"/>
<circle cx="134" cy="260" r="4" fill="#FAF7F5"/>
<circle cx="151" cy="185" r="4" fill="#FAF7F5"/>
<circle cx="151" cy="203.75" r="4" fill="#FAF7F5"/>
<circle cx="151" cy="222.5" r="4" fill="#FAF7F5"/>
<circle cx="151" cy="241.25" r="4" fill="#FAF7F5"/>
<circle cx="151" cy="260" r="4" fill="#FAF7F5"/>
<circle cx="168" cy="184" r="4" fill="#FAF7F5"/>
<circle cx="168" cy="202.75" r="4" fill="#FAF7F5"/>
<circle cx="168" cy="221.5" r="4" fill="#FAF7F5"/>
<circle cx="168" cy="240.25" r="4" fill="#FAF7F5"/>
<circle cx="168" cy="259" r="4" fill="#FAF7F5"/>
<circle cx="185" cy="184" r="4" fill="#FAF7F5"/>
<circle cx="185" cy="202.75" r="4" fill="#FAF7F5"/>
<circle cx="185" cy="221.5" r="4" fill="#FAF7F5"/>
<circle cx="185" cy="240.25" r="4" fill="#FAF7F5"/>
<circle cx="185" cy="259" r="4" fill="#FAF7F5"/>
<circle cx="202" cy="185" r="4" fill="#FAF7F5"/>
<circle cx="202" cy="203.75" r="4" fill="#FAF7F5"/>
<circle cx="202" cy="222.5" r="4" fill="#FAF7F5"/>
<circle cx="202" cy="241.25" r="4" fill="#FAF7F5"/>
<circle cx="202" cy="260" r="4" fill="#FAF7F5"/>
<circle cx="219" cy="185" r="4" fill="#FAF7F5"/>
<circle cx="219" cy="203.75" r="4" fill="#FAF7F5"/>
<circle cx="219" cy="222.5" r="4" fill="#FAF7F5"/>
<circle cx="219" cy="241.25" r="4" fill="#FAF7F5"/>
<circle cx="219" cy="260" r="4" fill="#FAF7F5"/>
<circle cx="236" cy="185" r="4" fill="#FAF7F5"/>
<circle cx="236" cy="203.75" r="4" fill="#FAF7F5"/>
<circle cx="236" cy="222.5" r="4" fill="#FAF7F5"/>
<circle cx="236" cy="241.25" r="4" fill="#FAF7F5"/>
<circle cx="236" cy="260" r="4" fill="#FAF7F5"/>
<circle cx="253" cy="185" r="4" fill="#FAF7F5"/>
<circle cx="253" cy="203.75" r="4" fill="#FAF7F5"/>
<circle cx="253" cy="222.5" r="4" fill="#FAF7F5"/>
<circle cx="253" cy="241.25" r="4" fill="#FAF7F5"/>
<circle cx="253" cy="260" r="4" fill="#FAF7F5"/>
<circle cx="270" cy="185" r="4" fill="#FAF7F5"/>
<circle cx="270" cy="203.75" r="4" fill="#FAF7F5"/>
<circle cx="270" cy="222.5" r="4" fill="#FAF7F5"/>
<circle cx="270" cy="241.25" r="4" fill="#FAF7F5"/>
<circle cx="270" cy="260" r="4" fill="#FAF7F5"/>
<circle cx="287" cy="185" r="4" fill="#FAF7F5"/>
<circle cx="287" cy="203.75" r="4" fill="#FAF7F5"/>
<circle cx="287" cy="222.5" r="4" fill="#FAF7F5"/>
<circle cx="287" cy="241.25" r="4" fill="#FAF7F5"/>
<circle cx="287" cy="260" r="4" fill="#FAF7F5"/>
<circle cx="355" cy="185" r="4" fill="#FAF7F5"/>
<circle cx="355" cy="203.75" r="4" fill="#FAF7F5"/>
<circle cx="355" cy="222.5" r="4" fill="#FAF7F5"/>
<circle cx="355" cy="241.25" r="4" fill="#FAF7F5"/>
<circle cx="355" cy="260" r="4" fill="#FAF7F5"/>
<circle cx="372" cy="185" r="4" fill="#FAF7F5"/>
<circle cx="372" cy="203.75" r="4" fill="#FAF7F5"/>
<circle cx="372" cy="222.5" r="4" fill="#FAF7F5"/>
<circle cx="372" cy="241.25" r="4" fill="#FAF7F5"/>
<circle cx="372" cy="260" r="4" fill="#FAF7F5"/>
<circle cx="389" cy="185" r="4" fill="#FAF7F5"/>
<circle cx="389" cy="203.75" r="4" fill="#FAF7F5"/>
<circle cx="389" cy="222.5" r="4" fill="#FAF7F5"/>
<circle cx="389" cy="241.25" r="4" fill="#FAF7F5"/>
<circle cx="389" cy="260" r="4" fill="#FAF7F5"/>
<circle cx="389" cy="260.2" r="4" fill="#FAF7F5"/>
<circle cx="389" cy="260.4" r="4" fill="#FAF7F5"/>
<circle cx="389" cy="260.6" r="4" fill="#FAF7F5"/>
<circle cx="389" cy="260.8" r="4" fill="#FAF7F5"/>
<circle cx="389" cy="261" r="4" fill="#FAF7F5"/>
<circle cx="406" cy="186" r="4" fill="#FAF7F5"/>
<circle cx="406" cy="204.75" r="4" fill="#FAF7F5"/>
<circle cx="406" cy="223.5" r="4" fill="#FAF7F5"/>
<circle cx="406" cy="242.25" r="4" fill="#FAF7F5"/>
<circle cx="406" cy="261" r="4" fill="#FAF7F5"/>
<circle cx="423" cy="186" r="4" fill="#FAF7F5"/>
<circle cx="423" cy="204.75" r="4" fill="#FAF7F5"/>
<circle cx="423" cy="223.5" r="4" fill="#FAF7F5"/>
<circle cx="423" cy="242.25" r="4" fill="#FAF7F5"/>
<circle cx="423" cy="261" r="4" fill="#FAF7F5"/>
<circle cx="440" cy="186" r="4" fill="#FAF7F5"/>
<circle cx="440" cy="204.75" r="4" fill="#FAF7F5"/>
<circle cx="440" cy="223.5" r="4" fill="#FAF7F5"/>
<circle cx="440" cy="242.25" r="4" fill="#FAF7F5"/>
<circle cx="440" cy="261" r="4" fill="#FAF7F5"/>
<circle cx="457" cy="186" r="4" fill="#FAF7F5"/>
<circle cx="457" cy="204.75" r="4" fill="#FAF7F5"/>
<circle cx="457" cy="223.5" r="4" fill="#FAF7F5"/>
<circle cx="457" cy="242.25" r="4" fill="#FAF7F5"/>
<circle cx="457" cy="261" r="4" fill="#FAF7F5"/>
<circle cx="474" cy="186" r="4" fill="#FAF7F5"/>
<circle cx="474" cy="204.75" r="4" fill="#FAF7F5"/>
<circle cx="474" cy="223.5" r="4" fill="#FAF7F5"/>
<circle cx="474" cy="242.25" r="4" fill="#FAF7F5"/>
<circle cx="474" cy="261" r="4" fill="#FAF7F5"/>
<circle cx="389" cy="55" r="4" fill="#FAF7F5"/>
<circle cx="389" cy="73.75" r="4" fill="#FAF7F5"/>
<circle cx="389" cy="92.5" r="4" fill="#FAF7F5"/>
<circle cx="389" cy="111.25" r="4" fill="#FAF7F5"/>
<circle cx="389" cy="130" r="4" fill="#FAF7F5"/>
<circle cx="406" cy="55" r="4" fill="#FAF7F5"/>
<circle cx="406" cy="73.75" r="4" fill="#FAF7F5"/>
<circle cx="406" cy="92.5" r="4" fill="#FAF7F5"/>
<circle cx="406" cy="111.25" r="4" fill="#FAF7F5"/>
<circle cx="406" cy="130" r="4" fill="#FAF7F5"/>
<circle cx="423" cy="55" r="4" fill="#FAF7F5"/>
<circle cx="423" cy="73.75" r="4" fill="#FAF7F5"/>
<circle cx="423" cy="92.5" r="4" fill="#FAF7F5"/>
<circle cx="423" cy="111.25" r="4" fill="#FAF7F5"/>
<circle cx="423" cy="130" r="4" fill="#FAF7F5"/>
<circle cx="440" cy="55" r="4" fill="#FAF7F5"/>
<circle cx="440" cy="73.75" r="4" fill="#FAF7F5"/>
<circle cx="440" cy="92.5" r="4" fill="#FAF7F5"/>
<circle cx="440" cy="111.25" r="4" fill="#FAF7F5"/>
<circle cx="440" cy="130" r="4" fill="#FAF7F5"/>
<circle cx="457" cy="55" r="4" fill="#FAF7F5"/>
<circle cx="457" cy="73.75" r="4" fill="#FAF7F5"/>
<circle cx="457" cy="92.5" r="4" fill="#FAF7F5"/>
<circle cx="457" cy="111.25" r="4" fill="#FAF7F5"/>
<circle cx="457" cy="130" r="4" fill="#FAF7F5"/>
<circle cx="474" cy="55" r="4" fill="#FAF7F5"/>
<circle cx="474" cy="73.75" r="4" fill="#FAF7F5"/>
<circle cx="474" cy="92.5" r="4" fill="#FAF7F5"/>
<circle cx="474" cy="111.25" r="4" fill="#FAF7F5"/>
<circle cx="474" cy="130" r="4" fill="#FAF7F5"/>
<circle cx="304" cy="184" r="4" fill="#FAF7F5"/>
<circle cx="304" cy="202.75" r="4" fill="#FAF7F5"/>
<circle cx="304" cy="221.5" r="4" fill="#FAF7F5"/>
<circle cx="304" cy="240.25" r="4" fill="#FAF7F5"/>
<circle cx="304" cy="259" r="4" fill="#FAF7F5"/>
<circle cx="321" cy="184" r="4" fill="#FAF7F5"/>
<circle cx="321" cy="202.75" r="4" fill="#FAF7F5"/>
<circle cx="321" cy="221.5" r="4" fill="#FAF7F5"/>
<circle cx="321" cy="240.25" r="4" fill="#FAF7F5"/>
<circle cx="321" cy="259" r="4" fill="#FAF7F5"/>
<circle cx="338" cy="184" r="4" fill="#FAF7F5"/>
<circle cx="338" cy="202.75" r="4" fill="#FAF7F5"/>
<circle cx="338" cy="221.5" r="4" fill="#FAF7F5"/>
<circle cx="338" cy="240.25" r="4" fill="#FAF7F5"/>
<circle cx="338" cy="259" r="4" fill="#FAF7F5"/>
<circle cx="355" cy="185" r="4" fill="#FAF7F5"/>
<circle cx="355" cy="203.75" r="4" fill="#FAF7F5"/>
<circle cx="355" cy="222.5" r="4" fill="#FAF7F5"/>
<circle cx="355" cy="241.25" r="4" fill="#FAF7F5"/>
<circle cx="355" cy="260" r="4" fill="#FAF7F5"/>
<circle cx="372" cy="185" r="4" fill="#FAF7F5"/>
<circle cx="372" cy="203.75" r="4" fill="#FAF7F5"/>
<circle cx="372" cy="222.5" r="4" fill="#FAF7F5"/>
<circle cx="372" cy="241.25" r="4" fill="#FAF7F5"/>
<circle cx="372" cy="260" r="4" fill="#FAF7F5"/>
<circle cx="406" cy="186" r="4" fill="#FAF7F5"/>
<circle cx="406" cy="204.5" r="4" fill="#FAF7F5"/>
<circle cx="406" cy="223" r="4" fill="#FAF7F5"/>
<circle cx="406" cy="241.5" r="4" fill="#FAF7F5"/>
<circle cx="406" cy="260" r="4" fill="#FAF7F5"/>
<circle cx="423" cy="186" r="4" fill="#FAF7F5"/>
<circle cx="423" cy="204.75" r="4" fill="#FAF7F5"/>
<circle cx="423" cy="223.5" r="4" fill="#FAF7F5"/>
<circle cx="423" cy="242.25" r="4" fill="#FAF7F5"/>
<circle cx="423" cy="261" r="4" fill="#FAF7F5"/>
<rect x="1" y="150" width="480" height="14" fill="#D9D9D9" fill-opacity="0.3"/>
</svg>
